<?xml version="1.0" encoding="utf-8"?>
<!-- Generator: Adobe Illustrator 26.0.1, SVG Export Plug-In . SVG Version: 6.00 Build 0)  -->
<svg version="1.1" id="Layer_2" xmlns="http://www.w3.org/2000/svg" xmlns:xlink="http://www.w3.org/1999/xlink" x="0px" y="0px"
	 viewBox="0 0 200 400" style="enable-background:new 0 0 200 400;" xml:space="preserve">
<style type="text/css">
	.st0{fill:#333333;}
	.st1{fill:#FFFFFF;}
</style>
<g>
	<rect class="st0" width="200" height="400"/>
	<path class="st1" d="M80.07,117.52c-0.43,0.04-0.88,0.43-1.06,0.95c0.24,0.21,0.52,0.35,0.8,0.38
		C79.57,118.57,79.61,117.87,80.07,117.52z"/>
	<path class="st1" d="M84.57,121.7c0.95-0.16,1.91-0.33,2.87-0.47c-1.76-2.32,0.56-1.74-4.15-3.2c-1.16,0.33-3.3,1.02-4.17,1.72
		l-0.02,0.02l-0.2-0.13c-0.43-0.27-0.7-0.57-0.92-0.3c0.06,0.22,0.18,0.45,0.33,0.65l0.42,0.57l0.44-0.14
		c1.09-0.33,2.53-1.14,4.06-0.98c-0.69,0.73-2.52,0.78-3.3,1.76c2.79,0.5,1.68-0.74,4.72-0.6L84.57,121.7z"/>
	<path class="st1" d="M87.91,119.18c-0.26,0.42-0.52,0.84-0.47,1.17C87.7,119.93,89.13,119.39,87.91,119.18z"/>
	<path class="st1" d="M89.7,118.9c1.86,0.06-0.02,0.88,0.17,1c0.69-0.53,1.4-1.03,2.11-1.55L89.7,118.9z"/>
	<path class="st1" d="M97.43,119.12c0.31-0.03,0.6-0.06,0.88-0.1C98.03,118.76,97.77,118.95,97.43,119.12z"/>
	<path class="st1" d="M101.25,119.17c-0.72-0.58-1.71-0.33-2.94-0.14l0.11,0.1c1.04,0.51-0.02,1.53-1.71,1.17
		c-1.79,0.18-1.61-0.89-3.17-0.21l2.09,0.94C98.42,120.98,100.11,119.52,101.25,119.17z"/>
	<path class="st1" d="M97.43,119.12c-0.32,0.03-0.65,0.04-1.01,0.03C96.86,119.35,97.17,119.25,97.43,119.12z"/>
	<polygon class="st1" points="93.55,118.88 92.59,119.09 92.81,119.56 	"/>
	<path class="st1" d="M107.57,119.72c-0.6,1.41-4.49-0.67-5.1,0.47c2.5,0.15,4.34,1.48,3.71,2.23l2.76-0.12
		C109.89,121.86,108.94,120.6,107.57,119.72z"/>
	<path class="st1" d="M110.85,124.17c0.09-0.09,0.19-0.13,0.27-0.12C111.02,124.05,110.93,124.08,110.85,124.17z"/>
	<path class="st1" d="M114.89,134.5l-2.09-6.31c0.54,0.56,0.98,0.27,1.29,1.73c-0.03-1.44-0.29-2.23-0.56-2.95
		c-0.27-0.7-0.51-1.33-0.65-2.25c0.6-0.46,0.86,0.37,0.96,1.29c0.11,0.9,0.17,1.81,0.73,1.07c-0.09-0.82-0.21-1.85-0.61-2.68
		c-0.19-0.41-0.46-0.77-0.76-0.99c-0.3-0.2-0.65-0.29-0.99-0.23c-0.11-0.58-0.44-1.16-1.12-1.68c0.11,0.56,0.15,1.12,0.09,1.65
		c0.11,0.29,0.43,0.13,0.77,0.16c0.33,0,0.62,0.18,0.23,0.58c-0.52,0.41-0.8,0.15-1.05,0.17c0.28,0.08,0.18,0.33,0.08,1.29
		c-0.06,0.46-0.14,1.05-0.18,1.79c-0.03,0.79-0.01,1.63,0.12,2.49C111.64,133.25,113.95,132.18,114.89,134.5z"/>
	<polygon class="st1" points="113.25,134.91 112.7,135.38 113.47,135.01 	"/>
	<path class="st1" d="M115.88,141.76l-1.26-3.28c0.1-0.37,0.4-0.6,0.65-0.87c-0.33,0.17-1.01-0.68-1.29-0.51
		c-1.23,1.67,0.82,4.06,1.22,5.84c-0.18,4.82-0.76-0.15-1.88,1.83c-0.09-1.34,0.24-1.42,0.16-3.28c-1.28,3.06,0.48,6.59,1.04,8.42
		c0.09-0.55,0.5-0.73,0.28-1.75l0.63,1.9C116.33,147.95,116.46,146.22,115.88,141.76z"/>
	<path class="st1" d="M115.31,135.76c0.22,1.24,0.16,1.72-0.02,1.84C115.63,137.24,115.86,136.79,115.31,135.76z"/>
	<path class="st1" d="M114.65,150.93c0.07-0.22,0-0.56-0.14-1.01C114.48,150.16,114.49,150.46,114.65,150.93z"/>
	<path class="st1" d="M116.1,148.87l0.08,2.37l0.56-0.98C116.63,149.93,116.43,148.78,116.1,148.87z"/>
	<path class="st1" d="M122.24,239.01c0.54-0.26,0.75-1.14,0.49-2.95c0.77,0.16,0.82,2.52,1.33,3.58c0.29-2.43,0.87-0.03,1.55-0.69
		c-0.14-2.69-1.22-3.8-1.28-6.68c0.23,0.13,0.55,0.05,0.77-0.35c-0.78-3.41-2.01-9.19-1.68-12.61c-0.02-3.27-0.59-5.64-1.26-9.17
		c-0.7-11.76-2.59-23.91-3.05-36.59l-1.61-1.65c0.66-0.67-0.28-3,0.7-2.73c-0.12,0.7,0.09,1.35,0.19,2.17
		c1.02-2.81-0.77-7.15-0.61-10.42c-0.22,0.39-1.44,1.04-1.75,0.09c1.63,0.1-0.38-3.82,1.38-4.95c0.16-3.27-1.42,0.01-1.47-3.38
		c-0.98-0.27-0.16,3.27-0.82,3.95c-0.87-0.98,0.04-3.08-0.94-2.83c0.03,5.45,2.93,15.3,4.23,23.52l-0.97-0.79
		c1.03,4.17,1.69,11.01,0.55,14.53c0.78-0.87,0.12,6.28,1.99,5.47c-0.34,1.11-0.24,1.43-0.27,2.97l0.65,0.36
		c0.18,2.17-0.79,1.91-0.5,4.38c0.68-1.7,1.09,0.08,1.85,0.74c-0.66,2.93-1.17,6.32-1.69,8.93c0.25-0.22,0.53-0.49,0.81-1.39
		c-0.14,1.75,0.64,1.38,0.96,1.81c0.19,1.65-0.9,1.58-1.44,1.55c-0.05,3.08,2.12,4.25,1.65,6.6l0.78-0.89
		c0.5,3.12-0.19,5.84,0.4,9.28c-1.02,1.77-1.26-2.75-1.9-4.14c-0.18,0.73-0.11,2.22-0.45,2.73c0.73,1.43,1.77,3.83,2.49,5.62
		C121.78,233.43,122.24,237.81,122.24,239.01z"/>
	<path class="st1" d="M120.8,229.44c-0.21-0.4-0.41-0.75-0.55-0.95c0.1,0.33,0.21,0.64,0.2,1.15
		C120.6,229.67,120.72,229.59,120.8,229.44z"/>
	<path class="st1" d="M122.24,239.01l-0.13,0.08C122.22,239.43,122.25,239.31,122.24,239.01z"/>
	<path class="st1" d="M123.45,218.84c-0.02,0.13-0.02,0.31-0.03,0.46c0,0.2,0.02,0.37,0.01,0.57L123.45,218.84z"/>
	<path class="st1" d="M119.34,216.61c0.23-0.7,0.46-1.65,0.67-2.73C119.65,214.21,119.37,214.49,119.34,216.61z"/>
	<path class="st1" d="M118.35,195.38c-0.21-0.64-0.43-0.24-0.75-0.67C117.68,196.05,118,196.48,118.35,195.38z"/>
	<polygon class="st1" points="120.93,233.26 121.42,235.86 121.73,236.81 	"/>
	<path class="st1" d="M126.27,286.43c0.61-1.11,0.85-2.55,0.98-4.06c0.09-1.51,0.12-3.1,0.29-4.54c-0.29-5.31-2.17-0.77-2.14-5.75
		l2.08,0.91c0.04-5.01,0.37-12.17-1.67-16.33c0.24-0.39,0.53-1.28,0.88,0c-0.23-3.34-3.07-1.59-2.6-6.05
		c1.55,4.07,1.16-1.43,2.53-0.37l0.19,0.64c-0.3-2.82-1.25-6.5-1.3-8.36c-0.54-0.04-1.25,1.64-1.51-0.83
		c-0.03,1.01-0.67,0.65-1.22,0.61c0.8,2.53,0.52,3.94,1.34,5.45c-0.61,1.48-0.29-0.95-0.9,0.53l0.78,2.02
		c-0.08,1.52-0.81-1.52-0.81,0.85c0.44,0.25,0.98,2.13,0.98,3.99l-0.27-0.52c0.36,1.4,0.06,3.41,1.22,2.68l-1.11,1.71l0.79-0.31
		c-0.2,3.89-2.06,5.35-1.1,10.32c0.25-1.19,0.67-0.1,0.82,0.54c0.57-2.08-0.58-2.56-0.71-4.53c0.79-0.31,1.77,3.06,2.24,0.65
		c-0.93,2.63,0.1,5-1.91,6.08c-0.21,3.14,0.71,4.38,0.06,7.56l-0.29-0.11c1.26,0.68-0.74,2.55,0.36,5.02l0.45-1.66
		c0.53,0.12,0.47,0.95,0.46,2.11c-0.19-0.15-0.19-0.15-0.49,0.2c0.46,0.22,0.63,1.22,0.75,2.3c0.12,1.11,0.37,2.1,0.58,2.25
		c-0.19-1.45-0.63-3.44-0.74-5.24C125.75,285.12,126.58,284.93,126.27,286.43z"/>
	<path class="st1" d="M123.39,253.62l0.51,1C123.8,254.2,123.64,253.83,123.39,253.62z"/>
	<path class="st1" d="M136.28,291.9c2.04-0.22-0.36,0.92,1.59,0.92c1.88-1.08-2.61-0.82-0.84-2.22c1.34,0.3,3.12-1.09,3.94-1.26
		c-0.8,0.73-0.02,1.87,0.38,2.05c0.7-0.5,2.51-0.19,3.79-0.32c-3.29-0.33,2.61-0.85-0.38-1.3c0.08-0.79,3.16-1.71,4.46-1.14
		c-0.07,0.55-1.08,0.47-1.9,0.58c-0.29,0.54,0.24,0.63,0.89,0.71c0.64,0.09,1.5,0.16,1.51,0.64c0.44-0.35,1.34-0.66,2.5-0.76
		c0.57-0.03,1.24,0.05,1.72,0.42c0.49,0.36,0.69,0.93,0.72,1.44c0.05,1.03-0.3,1.93-0.3,2.54c0,0.6,0.28,0.97,1.37,0.32
		c0.6-0.56,0.88-1.2,0.99-1.81c0.11-0.61,0.09-1.2,0.06-1.87c-0.15,1-0.52,1.47-0.71,1.64c-0.21,0.17-0.33,0.06-0.4-0.14
		c-0.14-0.41-0.22-1.22-0.55-1.24c0.14-0.37,0.11-0.8-0.09-1.15c-0.19-0.35-0.54-0.61-0.86-0.75c-0.31-0.15-0.59-0.22-0.7-0.31
		c-0.11-0.09-0.06-0.21,0.21-0.33c0.94-0.04,1.9,0.26,2.51,0.93c-0.39-1.01-1.37-1.61-2.42-1.89c-0.52-0.16-1.12-0.22-1.74-0.27
		c-0.61-0.07-1.25-0.09-1.91-0.09c-0.71-0.02-1.21,0.02-1.74,0.03c-0.54,0.02-1.08,0.07-1.62,0.11c-1.08,0.11-2.18,0.24-3.27,0.43
		c-4.37,0.72-8.67,1.96-12.6,2.86c1.15-0.2,2.29-0.42,3.44-0.65c-0.27,0.69-1.89,1.08-3.1,1.61l1.99,1.14
		c-1.02,0.1-1.96,0.5-1.97-0.05c-0.69,0.46-0.96,0.74-0.83,0.97c0.09,0.23,0.66,0.38,1.19,0.53c-0.9,0.25-1.83,0.38-2.49,0.37
		c-0.69,0-1.25-0.11-1.76-0.23c-0.51-0.14-0.99-0.29-1.52-0.52c-0.53-0.23-1.13-0.51-1.83-1.01c0.43,0.82,1.01,1.4,1.59,1.79
		c0.58,0.4,1.15,0.61,1.68,0.73c1.07,0.23,1.97,0.07,2.84-0.14c0.44-0.12,0.87-0.25,1.34-0.4c0.25-0.08,0.32-0.12,0.5-0.17
		c0.15-0.05,0.32-0.1,0.5-0.14c0.71-0.18,1.62-0.3,2.91-0.3L136.28,291.9z"/>
	<path class="st1" d="M125.34,292.6c0.52,0.17,1.07,0.23,1.6,0.21c-0.68-0.19-1.31-0.56-1.82-1.07
		C125.16,292.03,125.25,292.31,125.34,292.6z"/>
	<path class="st1" d="M128.78,290.59c-0.1,0.36-0.68,0.36-0.84,0.69c0.83,0.42,1.32,0.24,1.37,0.1
		C129.38,291.21,129.09,290.97,128.78,290.59z"/>
	<path class="st1" d="M151.13,290.64c0.51-0.05,1.13-0.05,1.59,0.28c-0.1-0.34-0.34-0.58-0.62-0.75
		C151.82,290.5,151.35,290.57,151.13,290.64z"/>
	<path class="st1" d="M149.62,304.15c1.92-3.14,2.17-4.8,5.14-7.85c0.36-1.43-0.33-1.23-0.95-1.13c-0.63,0.13-1.26,0.28-1.4-0.32
		c-1.32,1.59,0.21,2.3-0.71,4.25c-1.14,0.18-1.57,2.69-2.86,4.27C149.28,303.36,149.61,303.58,149.62,304.15z"/>
	<path class="st1" d="M139.91,312.81c-0.94,1.39-1.32,3.16-2.4,4.03c-0.34-0.45,0.05-1.39,0.73-2.15c-1.37-0.13-0.87,1.64-2.55,2.7
		c0.2-0.06,0.73-0.48,0.67,0.08c-2.73,3.58-0.57,2.65-4.39,7.13c-0.19,0.88-0.66,1.58,0.09,1.9c-2.69,2.19-1.75,0.8-4.71,3.62
		c0.48,0.14,2.1-0.35,2.92,0.23c-4.31,3.89-3.03,4.9-5.91,7.29c0.18-0.37,0.23-0.91,0.88-1.64c-1.43-0.4-1.47,2.65-2.8,4.16
		l-0.89-0.83c-0.86,1.64-1.98,4.73-4,6.17l-0.21-0.77c-0.9,2.15-2.16,4.27-3.44,6.3c-0.64,1-1.26,1.98-1.86,2.92
		c-0.56,0.87-1.08,1.49-1.57,1.86l-0.22,0.14c-0.54-0.04-0.98-0.24-1.36-0.52c-0.4,0.09-0.74,0.08-0.92,0.1
		c-0.19,0.02-0.24,0.07-0.19,0.15c0.1,0.15,0.62,0.41,1.17,0.54c0.54,0.15,1.13,0.12,1.48,0.19c0.18,0.04,0.3,0.13,0.29,0.31
		c-0.01,0.18-0.14,0.47-0.57,0.81c-0.57-1.02-0.92-0.7-1.92-0.53c-0.95,0.2-2.54,0.08-3.58-1.19c-0.34-0.79,0.36-0.4,1.04-0.14
		c0.7,0.27,1.34,0.39,0.94-0.37c-1.09,0.71-1.48-0.47-2.89-1.21c0.47-0.31-0.12-0.85-0.65-1.42c-0.54-0.58-1.01-1.11-0.22-1.2
		l-5.65-2.59c-0.27-1.1-1.58-2.2-2.59-2.97c2.29,2.22-1.75,0.55,0.5,3.38c1.88,1.48,4.26,3.44,6.75,5.61
		c1.29,1.08,2.69,2.15,4.33,2.89c0.82,0.37,1.71,0.64,2.65,0.71c0.95,0.07,1.92-0.12,2.76-0.53c0.75-0.37,1.31-0.84,1.79-1.3
		c-0.27-0.78,0.35-1.61,0.98-2.51c0.63-0.88,1.32-1.78,1.11-2.54c0.48,0.14,1.08-0.05,1.56,0.08c2.06-3.66-1.22,0.37-1.1-0.78
		c0.86-1.64,2.42-2.38,2.77-1.94c1.73-2.45-0.15-0.5,0.04-2.22l2.44-0.73c4.79-8.07,10.78-18.99,17.46-27.35l-1.29,0.11
		c3.16-3.71,2.62-7.98,6.81-10.33l0.09-1.7c-0.03,0.94,1.73,0.15,1.6,1.58c0.44-1.28,1.54-2.23,2.04-3.54l-1.74,1.74
		c0.22-1.88,1.7-3.13,2.64-3.19c1.15-3.57-2.65,0.81-3.8,1c-1.26,5.26-4.36,3.24-6.42,7.73
		C137.42,314.94,139.57,312.35,139.91,312.81z"/>
	<path class="st1" d="M145.71,309.12c0.1-0.3,0.16-0.55,0.18-0.76C145.8,308.61,145.74,308.86,145.71,309.12z"/>
	<path class="st1" d="M94.65,345.91c-0.27-0.27-0.6-0.56-1.06-0.94C93.07,344.82,93.75,345.23,94.65,345.91z"/>
	<polygon class="st1" points="148.85,303.37 148.83,303.37 148.82,303.41 	"/>
	<polygon class="st1" points="148.13,299.97 147.35,301.08 147.87,301.14 	"/>
	<path class="st1" d="M85.44,335.01l-0.39,0.36C85.26,335.34,85.42,335.26,85.44,335.01z"/>
	<path class="st1" d="M59.7,306.45l0.52,0.65C60.12,306.85,59.91,306.63,59.7,306.45z"/>
	<path class="st1" d="M88.27,257.18c-0.59-2.47-1.22-5.77-2.25-7.55l0.55,0.13c-0.4-1.31-1.62-5.59-2.33-2.7l0.52,0.64
		c1.09,3.11-0.66,2.39-0.77,4.92c0.52,2.98,2.73,4.5,2.52,7.2c0.19,1.15-0.37,1.03-0.81,0.73c0.14,2.69,1.8,3.55,2.2,5.36
		c-3.93,1.21,2.06,8.03,0.04,12.27c0.65,2.44,0.75,5.82,2,8.87c-1.24-1.54,0.35,2.99-0.88,2.46c0.61,0.14,0.93,0.79,1.13,1.68
		c0.1,0.45,0.16,0.96,0.21,1.49c0.03,0.3,0.03,0.46,0.04,0.67l0.02,0.59c0.02,0.77,0.07,1.45,0.28,2.13
		c-0.44,0.2-0.61,0.57-0.19,1.26c-4.49-0.26-0.02,0.22-5.11,0.13c-0.03-0.33,0.8-0.43,1.12-0.52c-2.02-0.38-2.88,1.59-4.64,0.42
		c-3.99,0.15-0.59,0.86-2.89,1.86c-4.18,0-3.05-0.51-5.42-1.56c-0.28,1.43-2.79,0.91-4.78,1.73c0.51,0.05,3.36,0.17,1.53,0.8
		c-4.86,0-3.84,1.11-8.4,1.6c-2.33-1.5,4.54-0.14,0.52-1.28c2.86-0.78,5.03-0.8,6.51-2c-1.92,0.04-4.04,0.17-6.2,0.34
		c-1.11,0.11-2.24,0.21-3.35,0.32c-1.19,0.13-2.28,0.25-3.19,0.42c-1.29-0.12-1.24-0.3-1.01-0.47c0.21-0.17,0.6-0.34-0.6-0.42
		c-1.29-0.17-2.38-0.19-3.19-0.13c-0.82,0.05-1.38,0.19-1.77,0.35c-0.08,0.02,0.11,0.16,0.24,0.28l0.4,0.35
		c0.26,0.22,0.51,0.44,0.76,0.67c0.45,0.4,0.89,0.79,1.33,1.18c0.79,0.73,1.34,1.33,1.66,2.02c-0.53-0.21-1.08-0.46-1.65-0.74
		c2.93,1.86,5.14,6.49,8.17,9.07c-0.02-0.64-0.02-1.06,0.51-0.85c-1.56,1.28,4.31,3.36,5.79,7.13c0.75-1.08,3.74,1.19,5.42,2.81
		c0.3,0.84-0.21,1.07-0.46,1.29c-2.03-3.32-3.53-1.8-6-3.66c2.18,1.44,4.48,4.99,6.66,5.98l-1.32,0.04
		c2.28,2.67,3.74,0.71,5.55,4.02l-0.78,0.24c5.12,5.28,10.29,12.38,15.68,15.33c0.79-0.08-0.33-3.17-0.11-3.61
		c-2.86-2.09-5.05-2.77-7.31-4.32l0.85-0.78c-0.99,0.12-3.59-1.86-2.78-0.15c-1.96-1.16-0.43-1.9-2.65-3.25
		c1.01-0.69,2.15,0.3,2.88-0.38l-1.95-1.16c0.82,0.17-0.61-1.22,0.19-1.07c-3.84-1.92-3.47-4.47-6.79-7.08l1.43,1.85
		c-0.5,0.44-1.36-0.57-2.19-1.18c-0.08-1.48-0.63-1.89-1.78-3.75c-1.63-1.01-3.21-0.97-4.88-2.84c1.3-0.45-2.25-3.57-1.74-4.63
		c-1.3,0.43-3.52-3.35-4.29-3.14c-1.07-0.85-2.15-2.33-1.63-2.76c0.15,0.12,0.51,0.34,0.82,0.62l-0.83-1.04c0.19,0,0.24-0.11,0.37,0
		c-0.23-0.28-0.27-0.25-0.39-0.28c-0.11-0.02-0.24-0.03-0.36-0.06c-0.23-0.05-0.48-0.22-0.37-0.58c0.39-0.06,0.6,0.19,0.87,0.32
		c-0.13-0.24-0.38-0.39-0.75-0.6c-0.37-0.2-0.86-0.46-1.36-0.77c-0.97-0.6-2.11-1.58-1.37-1.61c-0.12-0.06-0.23-0.13-0.35-0.21
		c-0.11-0.07-0.29-0.18-0.25-0.2c-0.09-0.19,0.19-0.34,0.28-0.57c0.07-0.24,0.03-0.57-1.1-1.14c1.65,0.48,2.64,1.56,4.21,1.37
		c0.14-0.56,0.91-0.46,1.52-0.31c0.51,0.15,1.55,0.35,2.53-0.04c-1.35,0.62-1.35,0.7-1.31,0.78c0.02,0.04,0.05,0.07-0.07,0.17
		c-0.06,0.05-0.16,0.12-0.32,0.2l-0.27,0.15l-0.16,0.19l0.15,0.06c0.04,0.01,0.23,0.02,0.34,0.02c0.26,0,0.53-0.02,0.81-0.06
		c0.57-0.09,1.18-0.24,1.83-0.4c1.31-0.33,2.78-0.7,4.38-0.66c0.34,0.25,0.34,0.59,0.69,0.85c1.18-0.45,2.49-1.45,3.7-0.57
		l-0.19-0.79c2.19,0.28,5.2-0.19,7.61,0.49l2.58-1.78c1.91,0.62,4,0.44,6.07-0.16c1.33-0.33,2.46-0.75,3.26-1.17
		c0.4-0.21,0.73-0.42,0.97-0.63l0.08-0.08l-0.1-0.21c-0.07-0.13-0.13-0.27-0.19-0.4c-0.13-0.26-0.25-0.49-0.38-0.72
		c-0.06-0.59-0.08-1.32-0.06-1.96c0.02-0.63,0.1-1.16,0.27-1.18c0.17,0.31,0.5,0.89,0.82,1.67c-0.07-0.58-0.1-1.2-0.13-1.85
		c-0.02-0.56-0.02-1.05-0.06-1.55c-0.09-0.98-0.31-1.83-1.02-2.28c-0.67-1.93,0.66-1.58,0.66-3.09c-2.38-3.77-0.3-12.04-3.16-12.92
		c0.19,1.65,0.05,4.85,0.6,7.99c-0.44-0.79-0.89-0.06-1.1-1.22c-0.55-3.14,0.25-4.89-0.59-8l1.78,0.16
		C90.88,266.17,86.22,261.7,88.27,257.18z"/>
	<path class="st1" d="M92.97,298.3l0.48,0.05l0.25,0.02l0.17-0.04l0.13-0.59c0.09-0.41,0.17-0.87,0.24-1.36
		c-0.25,0-0.51-0.01-0.77-0.03c0.14,0.49,0.24,0.98,0.29,1.42l0.03,0.32l0.01,0.15c-0.02,0.04,0.04,0.13-0.05,0.11
		C93.49,298.34,93.23,298.33,92.97,298.3z"/>
	<path class="st1" d="M93.47,296.34c-0.17-0.64-0.4-1.26-0.63-1.8c0.08,0.61,0.2,1.19,0.44,1.78L93.47,296.34z"/>
	<path class="st1" d="M87.09,248.07c0.02-0.51,0.07-1.51-0.2-2.5C86.73,246.24,86.77,247.58,87.09,248.07z"/>
	<polygon class="st1" points="86.33,245.44 86.16,246.62 86.37,246.77 	"/>
	<path class="st1" d="M82.13,177.97l-1.04-3.72c0.54-0.65-0.08-4.85,0.84-3.49c-1.25-2.21-0.02-7-1.84-5.21
		c0.32,5.41,0.12,11.88,0.15,18.6c0.01,6.71,0.29,13.65,1.26,19.94l-0.78-2c1.63,6.51-1.31,9.06,1.79,14.22l-1.5-0.64
		c-0.3,3.03,2.41,5.64,1.02,8.86l0.59-0.34c0.05,0.83-0.21,1.17-0.17,2.01l0.25-0.35c0.74,2.15,0.75,3.5,0.48,5.68
		c-0.46,0.18-0.26-1-0.43-1.66c-0.41,1.02,0.68,2.66,0.81,4.33c-0.31,1.35-0.68,0.03-0.89-0.14c1.01,4.99-0.35,7.41,2.15,10.79
		c0.43,0.31,0.63-1.37,0.98,0.45c0.4-3.38-0.69-5.98-1.49-8.97l0.06,0.84c-2.3-2.25,0.33-1.86-0.85-5.66
		c0.92,0.96,1.04,2.64,1.56,3.28c1.31-4.56-1.66-6.29,0.23-9.36l0.09,0.32c0.17-0.67-0.29-1.83-0.54-2.82
		c-0.25,0.35-0.34,1.35-0.51,2.03c-0.26-1.01-1.22-1.48-1.63-1.8c0.88-1.2-0.54-1.5-0.17-3.34c0.84-0.69,0.88,1.48,1.38,2.13
		l-0.71-2.16c-0.17-2,0.85-2.02,1.28-3.03c-0.74-1.67-0.43,1.01-1.42-0.32c0.97-2.19,0.3-11.36-0.62-15.71
		c0.16,1.5,0.94,0.51,0.85,2.34c0.19-0.66-0.33-3-1-3.01c-0.68-3.02-0.3-6.88,0.28-9.71l-0.66,0.83c-1.17-2.37,0.79-6.01,0.13-10.21
		l-0.02,0.09c-0.14-1.35-1.78-2.52-1.42-4.99C81.4,176.77,81.32,178.1,82.13,177.97z"/>
	<path class="st1" d="M80.64,163.23l0.93,1.36c0.21-1.5-1.01-3.36-1.61-3.04c0.21,1.01-0.2,2.32,0.34,2.5
		C80.43,163.89,80.77,163.91,80.64,163.23z"/>
	<path class="st1" d="M79.07,135.53c-0.28-0.51-0.61-0.32-0.9-0.51c0.88,5.73,1.65,12.93,0.98,15.3c-0.18,1.97,1.21,2.29,1.62,4.78
		l-0.92,1.15c0.63,1.33-0.35,5.47,1.18,3.99c0.13-0.15-0.74-1.17-0.49-2.32l0.54,0.18l-0.23-2.66l0.68,0.84
		c0.85-3.67-2.04-2.5-1.61-6.95l1.35-0.03c-0.02-1.49-0.19-2.61-0.26-3.68c-0.06-1.08-0.04-2.11,0.25-3.45c0,0-0.68,0.03-0.37,0.52
		c-0.03,0.5-0.52,1.17-0.94,0.86c-1.41-4.38,0.86,0.64,1.15-2.54c-0.62-1.87-1.32-4.59-1.84-7.09c-0.23-1.26-0.46-2.45-0.55-3.49
		c-0.09-1.03-0.08-1.89,0.09-2.46c-0.48,1.89-1.8-0.56-2.12-2.63c0.26-1.04,0.93,0.49,1.37,0.76c-0.03-1,0.11-1.86-0.3-2.78
		c-0.45,1.41-1.61,0.78-2.54-1.31c0.06,1.26,0.31,2.4,0.67,3.5c0.33,1.1,0.75,2.16,1.2,3.22C77.93,130.84,78.85,133,79.07,135.53z"
		/>
	<path class="st1" d="M77.76,134.19c0.11,0.5,0.26,0.72,0.41,0.82c-0.1-0.68-0.19-1.36-0.28-1.99L77.76,134.19z"/>
</g>
</svg>
