<?xml version="1.0" encoding="utf-8"?>
<!-- Generator: Adobe Illustrator 26.0.1, SVG Export Plug-In . SVG Version: 6.00 Build 0)  -->
<svg version="1.1" id="Layer_1" xmlns="http://www.w3.org/2000/svg" xmlns:xlink="http://www.w3.org/1999/xlink" x="0px" y="0px"
	 viewBox="0 0 200 300" style="enable-background:new 0 0 200 300;" xml:space="preserve">
<style type="text/css">
	.st0{fill:#C69C6D;}
	.st1{fill:#8C6239;}
	.st2{fill:#FFFFFF;}
	.st3{fill:#B3B3B3;}
	.st4{fill:#3E2D28;}
	.st5{fill:#999999;}
</style>
<g>
	<path class="st0" d="M21.62,286.5c-7.24,0-13.12-5.89-13.12-13.12V67.62c0-7.24,5.89-13.12,13.12-13.12h154.75
		c7.24,0,13.12,5.89,13.12,13.12v205.75c0,7.24-5.89,13.12-13.12,13.12H21.62z"/>
	<path class="st1" d="M176.38,55c6.96,0,12.62,5.66,12.62,12.62v205.75c0,6.96-5.66,12.62-12.62,12.62H21.62
		C14.66,286,9,280.34,9,273.38V67.62C9,60.66,14.66,55,21.62,55H176.38 M176.38,54H21.62C14.1,54,8,60.1,8,67.62v205.75
		C8,280.9,14.1,287,21.62,287h154.75c7.52,0,13.62-6.1,13.62-13.62V67.62C190,60.1,183.9,54,176.38,54L176.38,54z"/>
</g>
<g>
	<path class="st2" d="M30.77,275.65c-7.24,0-13.12-5.89-13.12-13.12V77.62c0-7.24,5.89-13.12,13.12-13.12h135.6
		c7.24,0,13.12,5.89,13.12,13.12v184.9c0,7.24-5.89,13.12-13.12,13.12H30.77z"/>
	<path class="st3" d="M166.38,65c6.96,0,12.62,5.66,12.62,12.62v184.9c0,6.96-5.66,12.62-12.62,12.62H30.77
		c-6.96,0-12.62-5.66-12.62-12.62V77.62c0-6.96,5.66-12.62,12.62-12.62H166.38 M166.38,64H30.77c-7.52,0-13.62,6.1-13.62,13.62
		v184.9c0,7.52,6.1,13.62,13.62,13.62h135.6c7.52,0,13.62-6.1,13.62-13.62V77.62C180,70.1,173.9,64,166.38,64L166.38,64z"/>
</g>
<g>
	<path class="st3" d="M75,63.5c-5.24,0-9.5-4.26-9.5-9.5s4.26-9.5,9.5-9.5h50c5.24,0,9.5,4.26,9.5,9.5s-4.26,9.5-9.5,9.5H75z"/>
	<path class="st3" d="M125,45c4.96,0,9,4.04,9,9c0,4.96-4.04,9-9,9H75c-4.96,0-9-4.04-9-9c0-4.96,4.04-9,9-9H125 M125,44H75
		c-5.52,0-10,4.48-10,10v0c0,5.52,4.48,10,10,10h50c5.52,0,10-4.48,10-10v0C135,48.48,130.52,44,125,44L125,44z"/>
</g>
<g>
	<ellipse class="st3" cx="101" cy="37.5" rx="20.5" ry="15"/>
	<path class="st3" d="M101,23c11.03,0,20,6.5,20,14.5S112.03,52,101,52s-20-6.5-20-14.5S89.97,23,101,23 M101,22
		c-11.6,0-21,6.94-21,15.5S89.4,53,101,53s21-6.94,21-15.5S112.6,22,101,22L101,22z"/>
</g>
<g>
	<ellipse class="st4" cx="101.5" cy="38" rx="15" ry="12.5"/>
	<path class="st5" d="M101.5,26c8,0,14.5,5.38,14.5,12s-6.5,12-14.5,12S87,44.62,87,38S93.5,26,101.5,26 M101.5,25
		C92.94,25,86,30.82,86,38s6.94,13,15.5,13S117,45.18,117,38S110.06,25,101.5,25L101.5,25z"/>
</g>
<g>
	<path class="st3" d="M59.39,75.5c-1.04,0-1.89-0.85-1.89-1.89V58.39c0-1.04,0.85-1.89,1.89-1.89h81.21c1.04,0,1.89,0.85,1.89,1.89
		v15.21c0,1.04-0.85,1.89-1.89,1.89H59.39z"/>
	<path class="st3" d="M140.61,57c0.77,0,1.39,0.63,1.39,1.39v15.21c0,0.77-0.63,1.39-1.39,1.39H59.39C58.63,75,58,74.37,58,73.61
		V58.39c0-0.77,0.63-1.39,1.39-1.39H140.61 M140.61,56H59.39C58.07,56,57,57.07,57,58.39v15.21c0,1.32,1.07,2.39,2.39,2.39h81.21
		c1.32,0,2.39-1.07,2.39-2.39V58.39C143,57.07,141.93,56,140.61,56L140.61,56z"/>
</g>
</svg>
