<?xml version="1.0" encoding="UTF-8" standalone="no"?>
<!-- Created with Inkscape (http://www.inkscape.org/) -->

<svg
   width="960"
   height="500"
   viewBox="0 0 253.9999 132.29167"
   version="1.1"
   id="svg5"
   inkscape:version="1.1.1 (3bf5ae0d25, 2021-09-20)"
   sodipodi:docname="drawing.svg"
   xmlns:inkscape="http://www.inkscape.org/namespaces/inkscape"
   xmlns:sodipodi="http://sodipodi.sourceforge.net/DTD/sodipodi-0.dtd"
   xmlns:xlink="http://www.w3.org/1999/xlink"
   xmlns="http://www.w3.org/2000/svg"
   xmlns:svg="http://www.w3.org/2000/svg"
   xmlns:rdf="http://www.w3.org/1999/02/22-rdf-syntax-ns#"
   xmlns:cc="http://creativecommons.org/ns#"
   xmlns:dc="http://purl.org/dc/elements/1.1/">
  <title
     id="title79810">zen</title>
  <sodipodi:namedview
     id="namedview7"
     pagecolor="#ffffff"
     bordercolor="#666666"
     borderopacity="1.0"
     inkscape:pageshadow="2"
     inkscape:pageopacity="0.0"
     inkscape:pagecheckerboard="0"
     inkscape:document-units="mm"
     showgrid="false"
     units="px"
     inkscape:zoom="0.65220725"
     inkscape:cx="264.48648"
     inkscape:cy="-0.76662748"
     inkscape:window-width="1920"
     inkscape:window-height="1001"
     inkscape:window-x="-9"
     inkscape:window-y="-9"
     inkscape:window-maximized="1"
     inkscape:current-layer="layer1" />
  <defs
     id="defs2">
    <rect
       x="510.74919"
       y="358.33884"
       width="23.268756"
       height="136.12222"
       id="rect19248" />
    <linearGradient
       id="linearGradient71231"
       inkscape:swatch="solid">
      <stop
         style="stop-color:#aaaaaa;stop-opacity:1;"
         offset="0"
         id="stop71229" />
    </linearGradient>
    <inkscape:path-effect
       effect="powerstroke"
       id="path-effect70562"
       is_visible="true"
       lpeversion="1"
       offset_points="32,4.99214"
       not_jump="false"
       sort_points="true"
       interpolator_type="CubicBezierJohan"
       interpolator_beta="0.2"
       start_linecap_type="zerowidth"
       linejoin_type="extrp_arc"
       miter_limit="4"
       scale_width="1"
       end_linecap_type="zerowidth" />
    <rect
       x="239.94928"
       y="223.95266"
       width="137.57092"
       height="95.979713"
       id="rect15315" />
    <rect
       x="35.192561"
       y="60.787152"
       width="926.20424"
       height="206.35638"
       id="rect13143" />
    <rect
       x="41.591209"
       y="52.788842"
       width="897.76672"
       height="686.75831"
       id="rect4659" />
    <marker
       style="overflow:visible"
       id="DiamondLstart"
       refX="0.0"
       refY="0.0"
       orient="auto"
       inkscape:stockid="DiamondLstart"
       inkscape:isstock="true">
      <path
         transform="scale(0.8) translate(7,0)"
         style="fill-rule:evenodd;fill:context-stroke;stroke:context-stroke;stroke-width:1.0pt"
         d="M 0,-7.0710768 L -7.0710894,0 L 0,7.0710589 L 7.0710462,0 L 0,-7.0710768 z "
         id="path2651" />
    </marker>
    <color-profile
       name="sRGB-IEC61966-2.1"
       xlink:href="../../../../../../../../../WINDOWS/system32/spool/drivers/color/sRGB%20Color%20Space%20Profile.icm"
       id="color-profile61147" />
  </defs>
  <g
     inkscape:label="Layer 1"
     inkscape:groupmode="layer"
     id="layer1">
    <path
       style="fill:#333333;fill-opacity:1;stroke-width:0.47945;stroke-miterlimit:4;stroke-dasharray:none"
       d="M -0.41304433,54.833117 V 1.0022023 H 126.56014 253.5333 V 54.833117 108.66402 H 126.56014 -0.41304433 Z"
       id="path933" />
    <text
       xml:space="preserve"
       transform="matrix(0.22106774,0,0,0.17215172,-2.1222078,-8.4591353)"
       id="text4657"
       style="font-style:normal;font-weight:normal;font-size:40px;line-height:1.25;font-family:sans-serif;white-space:pre;shape-inside:url(#rect4659);fill:#000000;fill-opacity:1;stroke:none"><tspan
         x="41.591797"
         y="219.62917"
         id="tspan61196"><tspan
           style="font-size:180.835px;font-family:'Fredericka the Great';-inkscape-font-specification:'Fredericka the Great';fill:#ffffff"
           id="tspan61182">A</tspan><tspan
           style="font-size:96px;font-family:'Fredericka the Great';-inkscape-font-specification:'Fredericka the Great';fill:#ffffff"
           id="tspan61184"> </tspan><tspan
           style="font-size:86.8009px;font-family:'Coming Soon';-inkscape-font-specification:'Coming Soon';fill:#cccccc"
           id="tspan61186">to</tspan><tspan
           style="font-size:96px;fill:#ffffff"
           id="tspan61188"> </tspan><tspan
           style="font-size:162.752px;font-family:'Fredericka the Great';-inkscape-font-specification:'Fredericka the Great';fill:#ffffff"
           id="tspan61190">Z</tspan><tspan
           style="font-size:86.8009px;font-family:'Coming Soon';-inkscape-font-specification:'Coming Soon';fill:#cccccc"
           id="tspan61192">en garden</tspan><tspan
           style="font-family:'Coming Soon';-inkscape-font-specification:'Coming Soon';fill:#ffffff"
           id="tspan61194">
</tspan></tspan><tspan
         x="41.591797"
         y="372.26365"
         id="tspan61212"><tspan
           style="font-size:57.8672px;fill:#cccccc"
           id="tspan61198">the</tspan><tspan
           style="font-size:53.3333px;fill:#ffffff"
           id="tspan61200"> </tspan><tspan
           style="font-size:101.268px;font-family:'Fredericka the Great';-inkscape-font-specification:'Fredericka the Great';fill:#ffffff"
           id="tspan61202">B</tspan><tspan
           style="font-size:57.8672px;font-family:'Coming Soon';-inkscape-font-specification:'Coming Soon';fill:#ffffff"
           id="tspan61204">eauty </tspan><tspan
           style="fill:#cccccc"
           id="tspan61206">of</tspan><tspan
           style="font-size:53.3333px;fill:#ffffff"
           id="tspan61208"> </tspan><tspan
           style="font-family:'Coming Soon';-inkscape-font-specification:'Coming Soon';fill:#ffffff"
           id="tspan61210">
</tspan></tspan><tspan
         x="41.591797"
         y="498.84864"
         id="tspan61222"><tspan
           style="font-family:'Coming Soon';-inkscape-font-specification:'Coming Soon';fill:#ffffff"
           id="tspan61214">              </tspan><tspan
           style="font-size:101.268px;font-family:'Fredericka the Great';-inkscape-font-specification:'Fredericka the Great';fill:#ffffff"
           id="tspan61216">C</tspan><tspan
           style="font-size:57.8672px;font-family:'Coming Soon';-inkscape-font-specification:'Coming Soon';fill:#b3b3b3"
           id="tspan61218">SS</tspan><tspan
           style="font-family:'Coming Soon';-inkscape-font-specification:'Coming Soon';fill:#ffffff"
           id="tspan61220">
</tspan></tspan><tspan
         x="41.591797"
         y="625.43363"
         id="tspan61230"><tspan
           style="font-family:'Coming Soon';-inkscape-font-specification:'Coming Soon';fill:#ffffff"
           id="tspan61224">                    </tspan><tspan
           style="font-size:101.268px;font-family:'Fredericka the Great';-inkscape-font-specification:'Fredericka the Great';fill:#ffffff"
           id="tspan61226">D</tspan><tspan
           style="font-size:57.8672px;font-family:'Coming Soon';-inkscape-font-specification:'Coming Soon';fill:#b3b3b3"
           id="tspan61228">esign</tspan></tspan></text>
    <text
       xml:space="preserve"
       transform="scale(0.26458333)"
       id="text13141"
       style="font-style:normal;font-weight:normal;font-size:40px;line-height:1.25;font-family:sans-serif;white-space:pre;shape-inside:url(#rect13143);fill:#000000;fill-opacity:1;stroke:none" />
    <text
       xml:space="preserve"
       transform="scale(0.26458333)"
       id="text15313"
       style="fill:black;fill-opacity:1;line-height:1.25;stroke:none;font-family:sans-serif;font-style:normal;font-weight:normal;font-size:40px;white-space:pre;shape-inside:url(#rect15315)" />
    <path
       style="fill:none;stroke:#000000;stroke-width:0.264583px;stroke-linecap:butt;stroke-linejoin:miter;stroke-opacity:1"
       d="m 157.70439,43.834542 c 1.60647,5.126153 1.60647,5.126153 0,0"
       id="path69157" />
    <path
       style="fill:none;stroke:#ffffff;stroke-width:0.264583px;stroke-linecap:butt;stroke-linejoin:miter;stroke-opacity:1"
       d="m 197.2553,45.88259 c -2.94587,0.09101 -12.22024,-6.81692 -11.40834,-10.713934 2.38004,-11.423874 10.26928,8.037692 10.26928,12.066524 0,1.581303 -1.19543,-2.929535 -1.86876,-4.360323 -0.39662,-0.842801 0.29707,3.664199 -0.0356,2.794167 -3.98711,-10.427547 -0.77763,2.145652 -1.01447,-4.538295 -0.045,-1.269238 0.16301,-2.567561 -0.10679,-3.808608 -0.39952,-1.837732 1.41517,4.466905 -0.0534,5.641724 -1.57617,1.260901 0.60416,-4.46994 -0.69411,-6.015466 -0.84269,-1.003168 -0.33211,5.060629 -0.8187,3.844202 -0.59121,-1.477983 -0.24471,-3.641415 -0.44494,-5.214591 -0.18861,-1.481907 0.0141,5.598549 -0.87209,4.395917 -0.56132,-0.761767 -0.12778,-3.01853 -0.26696,-4.004376 -0.0204,-0.14402 -1.42101,3.31084 -1.42382,3.043328 -0.008,-0.757653 0.0114,-3.268295 0.51613,-3.773014 0.21329,-0.213283 -0.84658,4.003238 -1.13905,3.506055 -1.82727,-3.10628 0.36636,-4.703416 0.46274,-4.716267 2.26616,-0.302149 1.35287,6.960415 2.50948,6.282423 0.16902,-0.09908 1.21746,-2.560498 1.37042,-2.260249 0.61668,1.210482 -0.50439,2.727995 -0.0178,3.968785 0.16122,0.411078 0.4289,-1.504757 0.67632,-1.139023 0.74325,1.098687 1.67459,4.126232 2.18912,5.481547 0.0925,0.243742 1.06498,3.221299 1.21024,3.221299 2.62587,0 -12.28971,-11.351648 -14.93228,-6.140045 -3.0919,6.097757 5.06777,5.694421 8.22254,5.303576 1.91341,-0.237054 6.49038,-2.555219 5.73087,-0.78308 -0.29922,0.698156 -1.6674,-1.561679 -2.08234,-0.925456 -0.35338,0.541837 -1.29034,1.697627 -1.58399,1.121227 -0.41329,-0.811239 0.0743,-3.5867 -0.21357,-2.722978 -0.0315,0.09434 -0.54557,2.919921 -1.06787,1.993291 -0.52905,-0.938614 0.0203,-4.259754 -0.26696,-3.221299 -0.34744,1.256072 -0.37739,2.701227 -1.01447,3.879797 -0.65322,1.208418 0.16378,-5.409538 -0.28477,-4.111162 -0.15224,0.44069 -1.11874,4.696383 -1.40602,2.669585 -0.10656,-0.751835 0,-3.037395 0,-2.278046 0,0.781132 -0.3172,4.520575 -1.15685,4.413715 -0.65309,-0.08312 -1.02637,-4.029535 -0.53393,-4.645078 0.0308,-0.03853 -1.29825,4.509045 -1.40602,3.808609 -0.24291,-1.578931 0.23546,-6.301669 0.62292,-4.751864 0.1699,0.679569 -0.97218,4.811307 -1.5128,4.484904 -1.21382,-0.732853 -0.62234,-5.544338 -0.0356,-4.253539 0.29544,0.649946 -0.49409,4.340648 -0.7475,4.253539 -1.38889,-0.477417 1.20744,-7.26817 0.39155,-3.274692 -1.01266,4.95658 -1.37852,-1.039479 -0.67632,-1.619546 0.75515,-0.623798 4.89571,2.702152 6.37159,3.292488 0.78386,0.313536 6.11333,0.479467 6.2292,1.174618 0.0691,0.414803 -5.97991,3.837752 -6.56736,4.609483 -1.94774,2.55873 -1.08381,8.398139 3.00781,7.20788 2.38206,-0.692944 4.09349,-12.01319 3.8621,-10.856315 -0.85256,4.262718 -2.06361,4.103836 -1.5128,-0.302551 0.18197,-1.455706 0.49108,5.682639 -0.21357,4.395917 -0.30605,-0.558847 -0.35633,-2.282317 -0.37375,-2.687383 -0.0674,-1.565712 -0.0192,3.330974 -0.92549,4.609483 -0.56542,0.797632 -1.14933,-3.097755 -1.24583,-3.541649 -0.27875,-1.2822 0.99513,3.311113 -0.16018,3.933188 -0.92707,0.499178 -0.72339,-4.062191 -0.90769,-3.025529 -0.63268,3.558754 -2.62833,4.692216 -1.12125,6.015466 1.44442,1.268235 0.29659,-2.170118 0.7831,-1.922103 1.72048,0.877086 0.13937,1.153025 0.81869,2.011087 1.20225,1.51859 1.76442,-5.829808 2.17132,-5.090009 0.52473,0.954022 -0.0892,4.333886 -0.24917,3.256894 -0.1349,-0.908359 -0.0356,-3.835638 0.16018,-4.573889 0.19999,-0.754221 0.43146,3.090267 0.35596,2.313641 -0.37237,-3.82992 6.22749,-7.459908 4.43163,-7.724 -3.93598,-0.578802 -1.21499,20.082203 4.43163,15.376811 2.47409,-2.061692 -4.68936,-16.278386 -6.42498,-13.241142 -0.86256,1.509446 0.6726,11.288864 1.77978,8.916414 1.41238,-3.026453 -0.0544,-8.00643 0.0178,-7.919768 2.85715,3.428487 0.76158,4.215043 1.77977,8.898617 0.29896,1.375148 0.57447,-5.599686 0.42715,-4.200149 -0.0534,0.741553 -0.10679,1.483104 -0.16018,2.224654 -0.0296,-1.098939 -0.24301,4.36395 -0.39155,3.274692 -0.13962,-1.023853 0.38724,-4.100618 0.14238,-3.096718 -0.1604,0.657628 -0.29272,4.046527 -0.21357,4.022175 6.20262,-1.90845 -3.94825,-10.067435 -2.38489,-12.849603 0.43822,-0.779865 -1.90712,-15.289017 4.75198,-13.579292 6.35864,1.632582 -2.63356,12.775715 -3.75531,12.173309 -1.46162,-0.784921 -0.0582,-6.34244 0.0712,-2.331437 0.0333,1.031312 -0.0629,-4.036964 0.32036,-3.078921 0.3013,0.753234 0.16304,2.227585 0.17797,3.078921 0.0304,1.730992 -0.32888,-6.753235 0.39155,-5.178996 0.48443,1.058542 0.60513,3.069767 0.60513,4.235741 0,0.240221 -1.54143,-8.924819 -0.44495,-2.509409 1.17538,6.87705 0.55186,-1.241224 0.71191,-2.491613 0.18416,-1.438735 0.59819,5.630405 0.99667,4.235741 0.61463,-2.151128 -1.28394,-8.793088 -0.51613,-6.691759 3.68545,10.086234 0.85306,-1.229437 2.18912,0.320349 0.52494,0.608915 1.12125,2.972057 1.05006,2.171264 -0.0704,-0.792517 -1.05643,-3.323961 -2.02894,-3.256894 -4.71326,0.325043 -2.6696,8.735375 -3.52394,11.497013 -0.37048,1.197555 -1.11597,3.160779 -2.3493,2.936545 -0.38598,-0.07018 0.82605,-0.68674 1.10346,-0.409337 2.34246,2.342396 5.86851,4.312459 9.13022,5.001022 5.46709,1.154133 5.88796,-7.556701 -4.89437,-6.74515 -1.02738,0.07733 -2.03643,-1.173171 -2.99001,-0.78308 -2.00982,0.822177 1.91086,5.422831 1.97554,4.484905 0.38983,-5.652307 1.11382,-0.437341 1.19245,-0.302554 0.41897,0.718219 -0.16518,-1.798815 0.32036,-2.473817 0.38941,-0.541361 0.93901,4.223986 1.12126,2.669588 0.14729,-1.256282 0.2676,-4.712193 0.97887,-3.666231 1.57734,2.319565 -1.97809,6.397151 0.14238,1.655141 0.39289,-0.878615 0.39838,3.82688 0.35595,2.865355 -0.0253,-0.574135 0.22079,-3.716893 0.90769,-4.022175 0.16297,-0.07243 -0.21827,5.560854 0.26696,5.641724 1.54925,0.258202 0.74617,-3.069315 1.38822,-4.5027 0.41719,-0.931365 0.0593,2.046835 -0.0534,3.061123 -0.24776,2.229797 -0.0488,-2.237616 0.53393,-2.189059 1.23003,0.102499 -0.98369,5.233813 0.96108,-0.05339 0.26469,-0.719616 -0.26024,3.053483 -0.14238,2.295843 1.09668,-7.049892 -10.99862,-4.515779 -10.19809,-3.577243 2.14785,2.518097 9.76625,8.504295 11.28375,2.68738 1.29629,-4.96898 -13.70344,-3.695649 -13.01013,-4.128957 0.39374,-0.246079 1.05471,1.826006 0.65852,1.60175 -1.52652,-0.864042 -0.12047,-3.021399 1.31703,-2.046682 0.89526,0.607047 0.8803,3.348898 -0.19578,3.239098 -1.07608,-0.109802 -0.88579,-3.253914 0.19578,-3.239098 2.10001,0.02877 1.96551,3.261784 0.60512,3.790813 -4.29892,1.671754 -3.14065,-7.688302 -0.60512,-3.790813 1.92633,2.961056 -2.6788,5.333789 -3.55954,2.509412 -0.57078,-1.830361 2.21014,-3.346709 3.55954,-2.509412 2.14081,1.328367 0.0999,4.165259 -1.35263,4.378122 -3.15384,0.462187 -3.05866,-4.988497 -0.40935,-4.360323 4.99378,1.184058 -1.08888,6.312844 -1.17465,2.153465 -0.0251,-1.217123 2.43556,-3.280744 2.93663,-2.171264 0.71732,1.58831 -0.31454,5.899238 -3.20359,5.143402 -1.16299,-0.304263 -0.4002,-5.325141 1.74418,-4.217945 7.85632,4.056423 -8.19086,2.978759 -1.44162,-0.622903 3.77578,-2.014905 5.21819,3.112622 3.16799,3.007733 -3.61636,-0.18502 -4.00231,-5.798426 -0.88988,-5.072213 6.0994,1.423154 -7.49921,5.923653 -2.81204,1.957697 3.10664,-2.62863 3.77326,3.378994 0.7831,2.883151 -3.08696,-0.511895 -0.97453,-6.955231 2.24251,-4.235741 6.94024,5.866852 -8.78023,2.946077 -2.40269,0.160174 10.6347,-4.645557 -5.16217,10.215964 -1.63739,0.338148 0.9119,-2.555497 4.04174,-1.379884 4.44943,0.658497 0.21828,1.091385 -1.98882,4.493493 -3.47055,1.744128 -0.42567,-0.789821 1.81127,-2.37994 2.18911,-1.566156 1.0927,2.353443 -1.05365,3.379976 -2.66965,1.81532 -2.38825,-2.312371 3.87342,0.510206 1.5128,-0.51612"
       id="path75733" />
    <path
       style="fill:none;stroke:#ffffff;stroke-width:0.264583px;stroke-linecap:butt;stroke-linejoin:miter;stroke-opacity:1"
       d="m 197.2553,45.88259 c 1.56405,6.279386 0.48665,4.112652 4.5918,10.126628 2.83894,4.15898 8.24332,5.666116 11.39054,9.557115 5.13094,6.343542 7.28896,14.598137 11.12357,21.659234 2.523,4.645887 -13.32756,-29.876337 -5.53509,-30.682433 1.1248,-0.116356 1.48441,14.200251 1.37043,15.519188 -0.10758,1.244738 -0.85837,4.921449 -0.58733,3.701825 0.40526,-1.823632 -2.92893,-17.1167 -2.3137,-13.525899 2.26982,13.248008 -0.81457,-6.474187 0.83649,2.740776 0.42397,2.366264 3.26007,7.649713 0.90768,7.154487 -1.04646,-0.2203 -0.67991,-8.356867 -0.35595,-9.290156 0.86127,-2.481228 3.88842,7.871132 1.26364,7.777393 -2.54289,-0.09082 -2.65936,-9.764014 -1.54841,-7.474839 0.51932,1.070078 2.05379,8.692706 1.22805,8.987602 -0.0396,0.01413 -0.61871,-9.457632 -0.14238,-5.250182 0.25047,2.212451 -1.64888,-8.748149 -1.12126,-6.584979 0.22578,0.925676 1.07044,3.330643 0.24917,2.847559 -2.36017,-1.388295 -0.3093,-5.101585 -0.49834,-6.424803 -0.18992,-1.329446 0.88413,-5.207532 1.08566,-3.879797 1.56381,10.302473 -4.2926,6.924815 0.14238,0.765281 1.53562,-2.13274 0.28737,10.496476 0,7.884176 -0.25133,-2.284828 1.77461,-7.792977 -0.33815,-6.88753 -0.21628,0.09269 0.88988,17.382902 0.88988,20.235455 0,4.359576 2.6811,7.7628 2.72305,7.154489 0.38653,-5.604462 -18.34669,-9.380585 -19.20373,-3.381476 -0.0146,0.101913 15.3242,3.485896 17.1214,2.811963 0.87983,-0.329928 -1.59264,-1.143347 -1.99334,-1.993289 -0.32108,-0.681059 0.25223,-2.615136 -0.39155,-2.224654 -0.33519,0.203304 -1.12188,2.557508 -1.90436,2.616192 -0.66003,0.0495 0.14079,-2.094169 -0.49833,-1.9221 -1.06602,0.286997 -2.9204,2.184176 -3.80871,1.477169 -0.37837,-0.301143 0.8565,-2.984058 -0.67632,-2.260248 -0.81811,0.386324 -2.27091,2.081546 -2.43828,1.192416 -0.11353,-0.603094 1.14406,-1.695968 0.53393,-1.761926 -1.27719,-0.13807 -4.66111,2.13809 -3.55954,1.477169 0.80402,-0.482399 1.43827,-1.207146 2.20691,-1.744129 0.93539,-0.653475 -3.57464,2.50593 -2.43828,2.402626 3.78567,-0.344141 3.63417,-3.822451 8.09796,-2.669585 1.10538,0.285491 -0.23462,2.602077 -0.26697,2.722978 -0.26419,0.987205 2.53982,-2.676271 2.58067,-1.655143 0.0397,0.992547 -1.74879,3.214132 -0.8187,2.865355 2.20332,-0.826222 -0.16316,0.04252 3.22139,-1.085633 0.38575,-0.128577 -0.13261,1.858473 0.12458,2.171264 0.61708,0.750482 3.09018,1.237845 4.32485,2.847556 1.44064,1.878262 5.04782,2.495159 5.17913,4.858647"
       id="path75933" />
    <text
       xml:space="preserve"
       transform="scale(0.26458333)"
       id="text19246"
       style="fill:black;fill-opacity:1;line-height:1.25;stroke:none;font-family:sans-serif;font-style:normal;font-weight:normal;font-size:40px;white-space:pre;shape-inside:url(#rect19248)" />
  </g>
  <metadata
     id="metadata79808">
    <rdf:RDF>
      <cc:Work
         rdf:about="">
        <dc:title>zen</dc:title>
      </cc:Work>
    </rdf:RDF>
  </metadata>
</svg>
