<svg id="Layer_1" data-name="Layer 1" xmlns="http://www.w3.org/2000/svg" viewBox="0 0 401.55 366.27"><defs><style>.cls-1{fill:#5d9f56;stroke-width:3px;}.cls-1,.cls-2{stroke:#000;stroke-miterlimit:10;}.cls-2{fill:#774b24;stroke-width:2px;}</style></defs><path class="cls-1" d="M469.7,569.61c0,.38,0,.78,0,1.16,0,30.13-11.58,58.2-31.54,81.74-35.18,41.52-96.38,69-166,69H271c-74.16-.34-138.64-31.87-172-78.26-.34-.46-.66-.92-1-1.38-14.85-21.19-23.29-45.38-23.29-71.09,0-1.1,0-2.23,0-3.33C62.4,482.49,99,407.65,163,399.71c31.07-3.84,66,3.25,99,20.48l.14.08c.45.22.9.46,1.34.72.47-.28.93-.56,1.4-.82,64.28-37.36,144.78-16.52,184.23,49.72A157.45,157.45,0,0,1,469.7,569.61Z" transform="translate(-70.84 -356.73)"/><path class="cls-2" d="M264.82,437.72c2.55-1,5.08-2.11,7.6-3.18,0-.38,0-.76,0-1.14,0-34.85-27.11-64.49-64.93-75.4l-3.61,22.22C234.32,391.18,256.91,412.46,264.82,437.72Z" transform="translate(-70.84 -356.73)"/></svg>