<svg id="Layer_1" data-name="Layer 1" xmlns="http://www.w3.org/2000/svg" viewBox="0 0 428.45 400.28"><defs><style>.cls-1{fill:#ffc170;stroke-width:3px;}.cls-1,.cls-2{stroke:#333;stroke-miterlimit:10;}.cls-2{fill:#774b24;stroke-width:2px;}</style></defs><path class="cls-1" d="M463.16,553.28c0,.41,0,.84,0,1.25,0,32.37-12.36,62.54-33.67,87.83C392,687,326.63,716.5,252.33,716.5H251c-79.17-.37-148-34.25-183.65-84.1-.36-.49-.7-1-1-1.49-15.86-22.76-24.87-48.76-24.87-76.38,0-1.19,0-2.4.06-3.59C28.39,459.66,67.41,379.23,135.76,370.7c33.16-4.12,70.43,3.5,105.71,22l.16.08c.48.24,1,.5,1.43.78.5-.3,1-.6,1.49-.88,68.62-40.15,154.55-17.76,196.66,53.43C460.7,479.07,467.57,517,463.16,553.28Z" transform="translate(-37.5 -317.72)"/><path class="cls-2" d="M244.46,404.67c2.73-1.1,5.43-2.27,8.12-3.42,0-.41,0-.82,0-1.23,0-37.45-28.94-69.3-69.31-81l-3.86,23.88C211.91,354.65,236,377.53,244.46,404.67Z" transform="translate(-37.5 -317.72)"/></svg>