<?xml version="1.0" standalone="no"?>
<!DOCTYPE svg PUBLIC "-//W3C//DTD SVG 20010904//EN"
 "http://www.w3.org/TR/2001/REC-SVG-20010904/DTD/svg10.dtd">
<svg version="1.0" xmlns="http://www.w3.org/2000/svg"
 width="1024.000000pt" height="768.000000pt" viewBox="0 0 1024.000000 768.000000"
 preserveAspectRatio="xMidYMid meet">

<g transform="translate(0.000000,768.000000) scale(0.100000,-0.100000)"
fill="#000000" stroke="none">
<path d="M0 3840 l0 -3840 5120 0 5120 0 0 3840 0 3840 -5120 0 -5120 0 0
-3840z m3372 3003 c-20 -7 -3 -23 24 -23 14 0 34 5 45 11 15 8 24 7 35 -2 12
-9 88 -10 342 -4 365 8 462 9 470 0 3 -3 -4 -19 -16 -35 -12 -16 -22 -36 -22
-44 0 -8 -9 -17 -19 -21 -18 -5 -35 -34 -36 -60 0 -6 -31 -41 -68 -79 -45 -45
-67 -76 -67 -92 0 -14 -11 -32 -30 -46 -16 -12 -32 -30 -36 -40 -7 -22 -78
-130 -122 -186 -17 -21 -36 -51 -43 -68 -7 -16 -30 -50 -51 -76 -21 -26 -38
-49 -38 -53 0 -4 -15 -27 -32 -53 -18 -26 -33 -52 -33 -57 0 -6 -10 -24 -21
-40 -12 -17 -29 -46 -39 -65 -10 -19 -21 -37 -24 -40 -4 -3 -24 -35 -44 -71
-26 -47 -33 -68 -24 -72 13 -5 88 -2 270 9 115 7 121 8 176 44 32 21 75 58 96
83 58 70 113 215 139 370 6 31 11 37 31 37 37 0 38 -3 34 -345 0 -71 -5 -139
-10 -152 -5 -13 -5 -23 0 -23 4 0 5 -14 3 -31 l-5 -32 -101 7 c-230 16 -771 5
-895 -18 -102 -18 -154 -4 -98 25 25 14 46 39 47 56 0 7 20 41 45 76 25 36 45
68 45 72 0 3 11 21 25 39 14 18 25 36 25 40 0 4 11 22 24 39 13 18 35 52 48
77 36 66 81 131 175 256 45 62 83 117 83 123 0 7 6 14 14 17 20 8 60 95 47
103 -6 4 21 39 60 81 39 41 80 92 92 114 12 21 27 48 34 60 7 12 8 25 4 29 -5
5 -69 7 -143 5 -125 -3 -136 -5 -181 -32 -76 -45 -132 -120 -177 -236 -22 -56
-43 -119 -46 -141 -7 -41 -18 -47 -46 -25 -15 11 -18 30 -17 137 0 68 -1 135
-3 149 -2 14 2 34 9 45 17 25 17 131 1 141 -8 5 -2 12 17 20 17 7 32 10 35 7
3 -3 -1 -8 -8 -10z m-2470 -64 c15 -30 31 -70 34 -89 9 -45 22 -62 45 -55 23
8 23 3 3 -36 -14 -28 -14 -32 2 -43 9 -7 14 -18 10 -24 -4 -7 0 -12 11 -13 17
-1 17 -2 1 -6 -10 -2 -18 -12 -18 -21 0 -30 12 -62 20 -57 5 3 11 1 14 -4 4
-5 2 -12 -4 -16 -15 -9 -12 -32 6 -61 15 -21 19 -23 33 -11 26 23 41 29 41 17
0 -6 -11 -15 -25 -20 -29 -11 -29 -11 -13 -45 13 -28 19 -30 36 -13 9 9 15 9
23 1 9 -9 6 -19 -10 -41 -18 -25 -19 -31 -6 -36 8 -3 15 -15 15 -26 0 -19 4
-21 30 -15 23 5 30 3 30 -9 0 -10 -8 -15 -21 -13 -12 1 -24 -4 -27 -12 -3 -10
0 -12 12 -8 14 5 16 3 11 -12 -4 -13 0 -20 15 -24 16 -4 19 -11 15 -30 -4 -14
-2 -28 5 -32 6 -4 8 -16 4 -27 -5 -18 -3 -20 19 -16 26 5 26 5 -6 -25 -29 -26
-30 -30 -14 -42 9 -6 14 -15 10 -18 -3 -4 -1 -7 6 -7 7 0 9 -5 4 -12 -9 -15
-5 -48 9 -65 5 -6 8 -17 7 -25 -4 -29 2 -38 26 -38 14 0 25 -4 25 -10 0 -5 7
-10 16 -10 12 0 14 -7 9 -30 -6 -26 -3 -30 22 -36 15 -4 34 -13 41 -21 7 -7
27 -13 43 -13 18 0 28 -4 24 -10 -3 -5 -30 -10 -58 -10 -29 -1 -72 -5 -97 -11
-25 -5 -78 -10 -119 -10 -41 -1 -84 -6 -98 -12 -17 -8 -29 -7 -48 3 -16 9 -47
11 -94 8 -38 -3 -75 -2 -82 3 -15 9 9 15 85 22 68 7 141 65 107 86 -7 5 -11
15 -9 22 6 17 -13 73 -46 140 -14 27 -28 72 -32 99 l-7 50 -166 0 c-91 0 -172
-4 -179 -9 -13 -7 -33 -58 -78 -191 -20 -60 -13 -128 16 -152 17 -13 40 -18
91 -18 77 0 97 -19 22 -21 -27 -1 -64 -3 -83 -5 -19 -1 -40 2 -47 8 -9 7 -23
7 -44 -1 -44 -15 -99 -14 -99 2 0 7 13 23 30 35 39 29 53 57 101 205 22 67 44
131 48 142 11 24 51 195 51 214 0 7 6 27 13 44 34 81 87 238 90 271 2 18 11
43 20 56 8 14 27 55 40 91 36 97 80 163 101 156 6 -2 23 -28 38 -58z m7495
-281 c13 -16 21 -101 33 -353 6 -110 21 -279 34 -375 21 -147 22 -177 11 -189
-15 -15 -43 -9 -49 11 -3 7 -7 25 -10 40 l-6 27 -47 -29 c-95 -61 -176 -66
-249 -17 -96 64 -153 177 -140 281 20 171 220 380 347 363 21 -3 39 -2 39 1 0
4 -5 56 -10 116 -8 80 -8 112 1 122 14 17 33 18 46 2z m-6397 -53 c6 -8 17
-63 24 -122 l12 -108 84 -8 c89 -9 110 -18 110 -47 0 -25 -17 -29 -75 -19 -28
4 -65 8 -82 8 l-33 1 0 -72 c0 -40 5 -116 10 -168 4 -52 12 -131 16 -175 12
-120 11 -136 -8 -149 -35 -22 -46 9 -62 184 -9 91 -19 214 -22 273 l-7 108
-56 -8 c-101 -13 -126 -11 -129 14 -4 29 19 38 113 48 l71 7 -8 81 c-4 45 -10
95 -13 111 -8 46 28 74 55 41z m4495 -15 c68 -23 85 -36 85 -62 0 -31 -25 -31
-97 -3 -75 30 -144 31 -202 1 -38 -20 -112 -112 -147 -183 -24 -49 -26 -61
-22 -155 3 -86 9 -113 32 -165 49 -108 156 -185 276 -199 69 -8 130 8 194 49
l48 32 -6 109 c-4 61 -8 112 -11 114 -2 2 -58 -1 -124 -8 -67 -6 -126 -8 -131
-5 -13 8 -13 42 0 50 17 10 295 33 304 25 14 -13 24 -84 37 -258 11 -149 10
-165 -5 -180 -24 -24 -50 -4 -54 40 l-3 36 -62 -32 c-57 -28 -70 -31 -158 -31
-90 0 -99 2 -171 38 -122 60 -199 154 -227 278 -15 65 -13 188 4 245 24 82
127 218 190 252 70 36 166 41 250 12z m-3833 -186 c35 -18 70 -65 105 -139 25
-54 28 -71 28 -165 0 -99 -2 -110 -33 -172 -57 -116 -147 -187 -238 -188 -53
0 -136 42 -174 88 -43 51 -64 130 -56 203 13 115 69 249 134 321 60 67 88 80
152 72 30 -3 67 -12 82 -20z m2390 -19 c4 -22 10 -57 13 -79 l6 -38 16 23 c80
120 211 169 319 120 48 -22 101 -83 114 -131 10 -43 30 -264 30 -342 0 -34 9
-80 21 -113 24 -63 20 -88 -13 -83 -49 7 -66 77 -88 372 -12 157 -21 190 -66
225 -105 83 -253 -7 -309 -189 -17 -54 -17 -56 13 -185 40 -175 46 -229 28
-244 -34 -28 -49 -9 -62 74 -6 44 -21 116 -32 160 -11 44 -25 139 -31 210 -6
72 -15 155 -20 185 -10 61 -1 83 33 78 16 -2 23 -13 28 -43z m2495 30 c3 -9
11 -55 17 -103 l12 -87 22 37 c29 46 90 101 141 128 70 35 162 20 169 -28 4
-27 -23 -40 -49 -24 -61 38 -172 -36 -229 -153 -34 -69 -38 -158 -11 -260 32
-125 37 -188 16 -205 -24 -20 -49 -1 -53 41 -1 19 -15 95 -32 169 -29 136 -67
458 -56 485 7 20 45 19 53 0z m1705 -30 c4 -22 10 -57 13 -79 l6 -38 16 23
c80 120 211 169 319 120 48 -22 101 -83 114 -131 10 -42 30 -263 30 -338 0
-29 9 -80 21 -114 23 -69 19 -91 -13 -86 -49 7 -66 78 -88 373 -12 165 -22
194 -80 232 -103 70 -241 -22 -295 -197 -17 -54 -17 -56 13 -185 40 -175 46
-229 28 -244 -34 -28 -49 -9 -62 74 -6 44 -21 116 -32 160 -11 44 -25 139 -31
210 -6 72 -15 155 -20 185 -10 61 -1 83 33 78 16 -2 23 -13 28 -43z m-2018 21
c66 -28 73 -48 75 -215 2 -153 24 -283 67 -390 15 -39 15 -44 1 -58 -33 -34
-52 -8 -92 125 l-22 74 -13 -32 c-22 -53 -87 -128 -130 -150 -70 -36 -162 -20
-222 37 -63 60 -96 246 -64 355 23 82 71 146 144 195 100 67 188 87 256 59z
m-2499 -29 c59 -34 101 -95 119 -177 20 -86 12 -110 -38 -110 -18 0 -59 -9
-91 -20 -32 -11 -69 -20 -81 -20 -44 0 -176 -33 -181 -46 -12 -31 20 -100 67
-146 64 -61 124 -75 260 -61 97 11 120 6 120 -23 0 -26 -54 -37 -180 -38 -143
0 -173 9 -245 75 -63 58 -88 128 -89 244 -1 114 20 177 80 244 51 57 132 101
183 101 20 0 54 -10 76 -23z m4200 0 c59 -34 101 -95 119 -177 20 -88 13 -106
-46 -113 -24 -2 -70 -12 -103 -20 -33 -9 -100 -24 -148 -33 -49 -9 -91 -23
-94 -29 -12 -32 20 -101 67 -147 64 -61 124 -75 260 -61 97 11 120 6 120 -23
0 -26 -54 -37 -180 -38 -143 0 -173 9 -245 75 -63 58 -88 128 -89 244 -1 114
20 177 80 244 51 57 132 101 183 101 20 0 54 -10 76 -23z m-6740 -1487 c87
-17 150 -49 163 -82 6 -16 17 -28 25 -28 15 0 20 -57 11 -137 -4 -37 -11 -46
-55 -77 -27 -20 -55 -36 -63 -36 -22 0 -70 -20 -63 -26 3 -3 20 -7 38 -8 18
-1 35 -8 37 -14 2 -7 10 -12 17 -12 43 0 134 -66 135 -97 0 -7 4 -13 9 -13 13
0 4 -146 -11 -177 -18 -37 -120 -117 -166 -131 -23 -7 -131 -12 -282 -12 -135
0 -258 -3 -275 -6 -34 -6 -127 -5 -134 2 -10 10 10 15 64 16 47 1 59 5 72 24
20 32 26 79 13 104 -9 16 -8 25 0 36 7 8 9 21 5 31 -5 10 -7 24 -6 31 1 6 -3
12 -9 12 -7 0 -5 9 4 22 18 25 21 74 6 83 -6 4 -8 11 -4 16 3 6 7 45 9 87 1
42 6 118 10 169 l7 92 -23 -5 -24 -5 23 17 c25 19 30 36 7 28 -8 -4 -15 -1
-15 5 0 7 6 14 14 17 10 4 12 13 7 32 -7 25 -12 28 -84 36 -42 5 -77 13 -77
17 0 13 546 3 615 -11z m-1469 -333 c2 -7 8 -55 12 -106 l7 -93 28 22 c35 27
97 37 137 20 50 -21 67 -61 78 -195 6 -66 14 -132 18 -147 5 -22 3 -28 -9 -28
-28 0 -39 39 -49 164 -6 72 -16 130 -24 143 -29 45 -97 42 -145 -7 -34 -34
-36 -61 -14 -194 8 -49 12 -93 9 -98 -7 -10 -34 -10 -34 0 0 5 -9 58 -19 118
-18 104 -35 397 -23 408 9 10 22 7 28 -7z m4284 -24 c33 -19 74 -87 66 -108
-9 -25 -25 -17 -40 19 -44 106 -146 78 -146 -41 l0 -55 47 3 c32 2 48 -1 51
-10 6 -18 -16 -31 -55 -31 -39 0 -40 -4 -18 -135 20 -120 19 -137 -2 -133 -14
2 -22 24 -35 98 -9 52 -17 112 -17 133 l-1 38 -42 -3 c-56 -4 -60 23 -7 36
l37 9 4 70 c3 63 7 72 36 98 37 33 79 38 122 12z m-4496 -15 c3 -13 8 -44 11
-69 l6 -46 45 -6 c49 -5 70 -18 59 -36 -4 -8 -24 -9 -57 -5 l-51 7 6 -84 c4
-46 10 -119 13 -161 6 -67 5 -78 -9 -78 -9 0 -18 4 -21 8 -3 5 -10 77 -17 160
l-12 152 -55 -7 c-49 -5 -54 -4 -50 13 2 14 16 21 53 28 28 5 51 9 52 10 1 1
-2 28 -6 61 -5 33 -7 63 -4 68 9 15 33 6 37 -15z m3200 0 c3 -13 8 -44 11 -69
l6 -46 45 -6 c49 -5 70 -18 59 -36 -4 -8 -24 -9 -57 -5 l-51 7 6 -84 c4 -46
10 -119 13 -161 6 -67 5 -78 -9 -78 -9 0 -18 4 -21 8 -3 5 -10 77 -17 160
l-12 152 -55 -7 c-49 -5 -54 -4 -50 13 2 14 16 21 53 28 28 5 51 9 52 10 1 1
-2 28 -6 61 -5 33 -7 63 -4 68 9 15 33 6 37 -15z m-610 -109 c25 -19 26 -25
26 -107 0 -57 7 -113 20 -160 25 -89 25 -104 3 -100 -11 2 -23 22 -33 55 l-16
53 -17 -29 c-85 -144 -237 -84 -237 92 0 91 40 154 126 197 51 25 95 25 128
-1z m820 -59 c16 -41 53 -111 82 -154 43 -65 54 -76 60 -60 3 10 12 36 20 57
8 20 14 45 14 54 0 28 72 173 86 173 26 0 24 -21 -11 -89 -19 -39 -35 -79 -35
-90 0 -11 -8 -42 -19 -68 -10 -26 -22 -72 -26 -102 -4 -30 -15 -78 -25 -106
-9 -27 -25 -94 -35 -148 -14 -80 -21 -97 -34 -95 -22 5 -16 75 16 198 14 52
27 105 30 117 4 15 -14 50 -61 120 -61 92 -126 226 -126 260 0 8 7 13 17 11
10 -2 28 -32 47 -78z m732 65 c27 -11 40 -27 61 -70 76 -169 -59 -368 -195
-285 -53 33 -74 75 -69 142 9 106 85 228 143 228 14 0 40 -7 60 -15z m-3390
-14 c35 -21 68 -92 62 -131 -3 -25 4 -22 -170 -59 -65 -14 -71 -25 -38 -79 29
-46 78 -64 164 -60 57 2 71 0 71 -12 0 -18 -35 -28 -105 -29 -116 -2 -190 70
-190 186 0 84 32 145 95 184 38 24 72 24 111 0z m1455 3 c49 -25 93 -148 57
-158 -7 -2 -35 -8 -63 -14 -175 -37 -174 -36 -135 -100 29 -46 78 -64 164 -60
57 2 71 0 71 -12 0 -18 -35 -28 -105 -29 -116 -2 -190 70 -190 186 0 84 32
145 95 184 37 23 67 24 106 3z m547 -9 c7 -14 17 -81 23 -148 6 -71 17 -131
25 -144 27 -43 90 -42 140 0 l27 24 -12 119 c-7 65 -13 128 -14 139 -1 11 5
21 14 23 20 4 27 -18 35 -120 6 -65 10 -77 27 -82 15 -4 18 -9 11 -23 -4 -10
-9 -47 -10 -83 -2 -48 -6 -66 -17 -68 -9 -2 -18 6 -22 17 -6 20 -6 20 -43 1
-66 -36 -147 -18 -176 38 -7 15 -18 82 -24 149 -6 67 -16 132 -22 143 -6 11
-8 25 -5 30 11 18 32 10 43 -15z m203 -957 c19 -6 55 -29 81 -51 l48 -40 20
24 c11 13 23 36 26 52 4 15 10 27 15 27 10 0 11 -11 14 -160 1 -58 5 -127 9
-153 6 -37 4 -47 -7 -47 -10 0 -16 17 -21 53 -10 84 -29 147 -43 147 -7 0 -13
6 -13 14 0 14 -84 97 -116 113 -40 22 -101 25 -135 8 -69 -36 -139 -138 -123
-180 4 -8 1 -21 -5 -29 -16 -19 -25 -330 -12 -384 6 -23 16 -61 21 -84 14 -58
41 -118 53 -118 5 0 16 -8 23 -17 10 -14 31 -19 103 -22 114 -4 132 1 182 46
63 57 78 96 68 168 -5 33 -6 73 -3 88 5 23 10 28 32 25 30 -3 30 -6 13 -107
-20 -112 -76 -193 -157 -227 -39 -16 -179 -15 -261 2 -66 14 -139 61 -185 119
-11 14 -26 24 -34 21 -8 -3 -15 6 -19 25 -4 16 -10 29 -15 29 -21 0 -43 109
-42 215 0 67 25 169 43 181 5 3 9 13 9 22 0 23 116 156 165 189 83 56 191 77
266 51z m564 -368 c49 -19 24 -35 -47 -32 -84 5 -154 -22 -164 -63 -4 -15 -2
-31 3 -36 5 -5 47 -14 94 -20 109 -13 151 -39 186 -116 28 -61 27 -125 -2
-170 -55 -83 -244 -80 -314 4 -57 69 -32 101 25 34 26 -29 46 -42 84 -51 141
-34 228 54 168 170 -30 57 -68 79 -162 89 -98 11 -126 29 -126 79 0 45 22 73
75 100 44 23 135 29 180 12z m410 0 c49 -19 24 -35 -47 -32 -84 5 -154 -22
-164 -63 -4 -15 -2 -31 3 -36 5 -5 47 -14 94 -20 109 -13 151 -39 186 -116 28
-61 27 -125 -2 -170 -55 -83 -244 -80 -314 4 -31 37 -41 73 -21 73 6 0 27 -18
48 -39 43 -46 104 -66 169 -56 90 13 125 89 81 175 -30 57 -67 78 -163 90
-100 13 -125 28 -125 78 0 45 22 73 75 100 44 23 135 29 180 12z m380 -1112
c69 -14 138 -51 185 -98 22 -22 44 -40 49 -40 14 0 43 -49 36 -61 -4 -5 -1
-17 6 -25 7 -8 14 -27 15 -41 2 -14 6 -33 10 -42 4 -9 6 -28 5 -44 -4 -42 9
-87 25 -87 20 0 17 -17 -6 -42 -11 -12 -21 -31 -22 -42 0 -12 -2 -26 -2 -33
-1 -7 -7 -18 -14 -25 -6 -6 -12 -22 -12 -35 0 -13 -4 -23 -9 -23 -5 0 -12 -8
-15 -18 -12 -36 -99 -113 -169 -150 l-72 -37 -230 3 c-126 1 -261 -1 -300 -6
-38 -6 -74 -6 -79 -1 -5 4 19 11 52 15 43 4 66 13 80 28 23 25 35 96 16 96
-21 0 -28 22 -10 32 20 11 21 28 1 28 -8 0 -15 6 -15 14 0 7 7 19 15 26 12 10
15 37 15 121 0 90 -3 109 -15 109 -19 0 -19 9 -1 29 10 12 11 31 6 76 -4 37
-3 62 3 67 14 9 11 69 -4 79 -9 5 -10 14 -3 31 6 13 9 30 7 38 -5 22 -51 40
-104 40 -52 0 -79 7 -79 21 0 13 574 10 635 -3z m1103 -431 c4 -20 -25 -34
-40 -19 -15 15 -1 44 19 40 10 -2 19 -11 21 -21z m-174 -48 c14 -7 27 -18 30
-26 8 -19 -18 -27 -44 -13 -12 6 -34 8 -50 5 -32 -7 -80 -41 -80 -56 0 -5 33
-24 73 -43 139 -63 173 -116 126 -193 -29 -46 -72 -67 -142 -67 -55 -1 -61 1
-93 36 -20 22 -34 48 -34 63 0 36 26 31 45 -9 30 -64 121 -71 177 -15 58 57
30 97 -114 163 -61 27 -78 39 -78 56 0 71 112 131 184 99z m694 -32 c4 -43 8
-45 33 -13 25 32 79 56 124 56 30 0 45 -8 75 -38 l38 -37 7 -110 c4 -61 11
-126 16 -145 12 -49 11 -60 -6 -60 -24 0 -37 45 -46 160 -11 132 -14 145 -41
170 -48 44 -125 10 -163 -73 l-24 -52 19 -85 c25 -108 26 -143 4 -138 -21 4
-58 178 -69 316 -6 88 -5 94 12 90 13 -2 19 -14 21 -41z m-1037 17 c49 -25 93
-148 57 -158 -7 -2 -35 -8 -63 -14 -175 -37 -174 -36 -135 -100 29 -46 78 -64
164 -60 57 2 71 0 71 -12 0 -18 -35 -28 -105 -29 -116 -2 -190 70 -190 186 0
84 32 145 95 184 37 23 67 24 106 3z m535 -84 c28 -211 33 -275 24 -284 -18
-18 -29 7 -39 84 -37 284 -38 293 -13 288 13 -3 19 -21 28 -88z m319 70 c6 -5
21 -7 33 -3 21 5 22 2 22 -63 0 -38 7 -132 15 -209 20 -192 19 -233 -5 -273
-35 -57 -118 -78 -186 -46 -52 25 -99 114 -59 114 8 0 22 -14 30 -30 33 -65
132 -78 175 -23 21 27 25 74 13 171 l-6 53 -26 -24 c-80 -74 -170 -57 -213 41
-19 43 -20 52 -9 106 16 77 52 146 92 181 28 23 39 26 73 21 22 -4 45 -11 51
-16z"/>
<path d="M4020 6779 c-11 -19 -10 -20 9 -10 27 15 36 31 17 31 -8 0 -20 -9
-26 -21z"/>
<path d="M4176 6791 c-4 -5 0 -11 6 -14 15 -5 17 -3 -50 -51 -29 -21 -51 -40
-49 -42 2 -2 19 1 38 7 34 9 103 85 93 101 -7 11 -32 10 -38 -1z"/>
<path d="M3539 6768 c-11 -22 -11 -22 7 -7 10 10 28 19 39 22 15 4 14 5 -7 6
-19 1 -31 -6 -39 -21z"/>
<path d="M3970 6779 c0 -5 5 -7 10 -4 6 3 10 8 10 11 0 2 -4 4 -10 4 -5 0 -10
-5 -10 -11z"/>
<path d="M3369 6757 c7 -7 14 -8 21 -1 6 6 2 10 -12 11 -16 2 -18 -1 -9 -10z"/>
<path d="M4064 6721 c-38 -27 -90 -62 -116 -78 -46 -27 -62 -52 -35 -54 6 0
-3 -7 -21 -15 -34 -15 -112 -87 -112 -104 0 -5 23 4 50 21 28 17 50 37 50 45
0 8 11 19 25 24 14 5 25 15 25 22 1 16 67 74 161 138 40 27 66 50 58 50 -9 0
-47 -22 -85 -49z"/>
<path d="M3974 6719 c-19 -22 -19 -22 3 -10 24 12 39 31 25 31 -5 0 -17 -10
-28 -21z"/>
<path d="M3375 6720 c-3 -6 1 -7 9 -4 18 7 21 14 7 14 -6 0 -13 -4 -16 -10z"/>
<path d="M3919 6672 c-40 -44 -45 -56 -15 -37 26 18 52 53 43 61 -2 2 -15 -8
-28 -24z"/>
<path d="M3390 6639 c-18 -16 -31 -32 -28 -34 3 -3 16 6 29 20 13 13 31 25 39
25 13 0 13 -1 0 -10 -8 -5 -10 -10 -4 -10 6 0 17 6 23 14 9 11 7 15 -7 18 -12
3 -32 -6 -52 -23z"/>
<path d="M4080 6643 c-8 -3 -33 -20 -55 -37 -22 -18 -54 -38 -72 -45 -17 -7
-34 -19 -37 -27 -3 -8 -10 -14 -16 -14 -6 0 -21 -9 -33 -21 -12 -12 -31 -25
-42 -29 -19 -8 -19 -9 3 -9 12 -1 22 -5 22 -10 0 -13 -26 -32 -41 -29 -7 2
-13 -3 -14 -11 0 -8 -11 -15 -27 -15 -31 -2 -58 -24 -62 -50 -1 -10 -9 -22
-17 -27 -11 -7 -8 -9 10 -9 13 0 21 3 18 7 -11 10 27 32 39 22 11 -9 96 26
102 42 2 5 8 9 13 9 5 0 38 18 73 40 54 35 72 55 80 92 0 3 4 10 9 14 18 18 4
22 -22 6 -111 -66 -140 -82 -150 -82 -17 0 -13 17 7 23 44 15 229 134 236 153
6 15 1 16 -24 7z m-278 -273 c-15 -15 -29 -19 -47 -14 -17 4 -25 2 -25 -7 0
-7 -3 -9 -6 -6 -10 9 16 37 33 37 8 0 11 -4 8 -10 -3 -5 -1 -10 4 -10 6 0 11
4 11 9 0 5 8 12 18 14 9 3 19 5 21 6 3 0 -5 -8 -17 -19z"/>
<path d="M3965 6590 c-3 -5 1 -10 10 -10 9 0 13 5 10 10 -3 6 -8 10 -10 10 -2
0 -7 -4 -10 -10z"/>
<path d="M3373 6565 c-18 -19 -22 -34 -20 -74 1 -28 5 -51 8 -51 7 0 33 78 34
102 0 9 3 20 8 24 4 4 7 11 7 16 0 14 -14 8 -37 -17z"/>
<path d="M3840 6570 c-8 -5 -12 -12 -9 -15 4 -3 12 1 19 10 14 17 11 19 -10 5z"/>
<path d="M3892 6372 c-29 -19 -50 -37 -48 -40 7 -6 106 58 106 69 0 11 5 14
-58 -29z"/>
<path d="M3702 6295 c-24 -13 -39 -26 -33 -29 9 -6 81 39 81 50 0 5 4 6 -48
-21z"/>
<path d="M3790 6305 c-7 -8 -8 -15 -2 -15 5 0 15 7 22 15 7 8 8 15 2 15 -5 0
-15 -7 -22 -15z"/>
<path d="M3870 6310 c0 -5 -13 -16 -29 -25 -17 -8 -42 -26 -57 -40 -15 -14
-33 -25 -40 -25 -7 0 -18 -9 -24 -20 -6 -11 -18 -20 -27 -20 -14 0 -14 3 3 22
19 21 18 21 -23 -2 -24 -13 -43 -27 -43 -32 0 -4 -6 -8 -13 -8 -8 0 -24 -11
-37 -25 -13 -14 -29 -25 -36 -25 -7 0 -18 -9 -24 -20 -6 -11 -8 -20 -4 -20 4
0 -5 -9 -18 -20 -14 -11 -33 -36 -43 -57 -10 -21 -33 -61 -51 -90 -32 -51 -33
-52 -9 -41 14 6 25 17 25 25 0 7 5 13 10 13 6 0 10 7 10 15 0 9 9 15 24 15 13
0 26 5 28 11 2 6 18 12 35 13 18 2 38 7 45 13 7 5 33 20 58 32 49 24 85 59
143 138 43 59 48 77 12 43 -14 -13 -25 -19 -25 -13 0 6 29 36 64 68 68 60 85
85 61 85 -8 0 -15 -4 -15 -10z m-208 -156 c-21 -15 -32 -42 -12 -29 6 3 10 1
10 -5 0 -7 -8 -9 -20 -5 -25 8 -94 -40 -86 -60 2 -7 -1 -18 -7 -24 -12 -12
-47 -15 -47 -3 0 17 78 91 103 97 15 4 25 11 22 15 -6 10 23 29 45 30 9 0 7
-5 -8 -16z m88 -4 c0 -5 -4 -10 -10 -10 -5 0 -10 5 -10 10 0 6 5 10 10 10 6 0
10 -4 10 -10z m-160 -80 c0 -5 -5 -10 -11 -10 -5 0 -7 5 -4 10 3 6 8 10 11 10
2 0 4 -4 4 -10z m-25 -90 c-3 -5 -10 -10 -16 -10 -5 0 -9 5 -9 10 0 6 7 10 16
10 8 0 12 -4 9 -10z"/>
<path d="M4217 6065 c-3 -16 -9 -48 -13 -70 -3 -22 -8 -49 -11 -60 -5 -18 -4
-18 11 -6 9 8 14 16 12 19 -3 3 2 17 10 31 13 21 14 37 7 72 -9 43 -10 43 -16
14z"/>
<path d="M3628 5956 c-10 -7 -15 -16 -11 -19 3 -4 -3 -8 -15 -8 -34 -2 -40 -4
-48 -11 -12 -12 42 -9 70 3 13 6 27 20 29 30 6 22 -1 24 -25 5z"/>
<path d="M3521 5926 c-7 -8 -44 -33 -84 -57 -89 -52 -107 -67 -107 -91 0 -26
6 -23 63 27 29 25 57 45 64 45 7 0 13 7 13 15 0 8 6 15 13 15 15 1 75 60 60
60 -6 0 -16 -6 -22 -14z"/>
<path d="M3546 5854 c-4 -9 -13 -14 -21 -10 -9 3 -21 -4 -31 -19 -9 -14 -21
-22 -30 -18 -10 4 -17 -2 -21 -16 -3 -11 -9 -21 -15 -21 -5 0 -14 -5 -21 -10
-7 -6 -21 -17 -32 -25 -19 -15 -18 -15 9 -9 19 5 27 3 23 -3 -4 -6 -21 -13
-38 -17 -18 -3 -30 -9 -27 -12 4 -3 22 -1 42 4 34 10 51 1 24 -12 -7 -4 -2 -3
12 0 14 3 33 6 42 7 9 1 16 4 15 7 -1 3 15 21 35 39 21 18 44 45 52 61 l14 29
-31 -5 -32 -5 28 18 c27 17 35 33 18 33 -5 0 -12 -7 -15 -16z m-51 -99 c-31
-26 -75 -34 -75 -14 0 6 8 9 18 7 12 -3 24 2 31 13 6 11 21 19 34 19 21 -1 20
-2 -8 -25z"/>
<path d="M4155 5844 c-24 -25 -10 -29 16 -5 13 12 18 21 12 21 -7 0 -19 -7
-28 -16z"/>
<path d="M4218 5854 c-4 -3 -4 -12 -1 -20 3 -8 -5 -23 -18 -33 l-24 -19 28 5
c18 4 29 13 33 30 6 24 -6 49 -18 37z"/>
<path d="M4098 5705 c-37 -25 -74 -45 -82 -45 -8 0 -17 -4 -20 -9 -6 -9 63
-21 121 -21 36 0 113 52 113 76 0 15 -63 11 -68 -5 -2 -6 -10 -11 -18 -11 -8
0 -14 -6 -14 -14 0 -14 -21 -26 -46 -26 -8 0 -11 6 -8 15 4 8 10 15 15 15 5 0
17 7 27 16 9 8 28 24 42 34 49 37 4 19 -62 -25z"/>
<path d="M4196 5735 c-11 -8 -15 -15 -9 -15 19 0 43 12 43 21 0 13 -12 11 -34
-6z"/>
<path d="M3266 5688 c-25 -41 -25 -43 -6 -46 11 -2 30 4 42 12 12 9 18 16 13
16 -6 0 -3 5 5 11 12 8 12 12 2 16 -10 4 -9 8 5 19 17 12 16 13 -9 14 -21 0
-32 -9 -52 -42z"/>
<path d="M3355 5670 c3 -5 8 -10 11 -10 2 0 4 5 4 10 0 6 -5 10 -11 10 -5 0
-7 -4 -4 -10z"/>
<path d="M3424 5656 c-11 -8 -15 -18 -10 -23 5 -4 11 -2 13 5 3 6 9 12 15 12
6 0 8 -7 4 -15 -4 -10 1 -15 14 -15 15 0 20 7 20 25 0 29 -24 34 -56 11z"/>
<path d="M4207 5655 c-15 -11 -16 -13 -2 -19 9 -3 18 1 22 10 8 21 1 25 -20 9z"/>
<path d="M3370 5640 c-14 -11 -20 -20 -14 -20 6 0 19 9 29 20 23 25 17 25 -15
0z"/>
<path d="M3240 5610 c-18 -12 -2 -12 25 0 13 6 15 9 5 9 -8 0 -22 -4 -30 -9z"/>
<path d="M826 6763 c-6 -14 -5 -15 5 -6 7 7 10 15 7 18 -3 3 -9 -2 -12 -12z"/>
<path d="M865 6742 c-22 -18 -75 -92 -75 -104 0 -20 19 -5 34 26 9 19 25 38
36 41 10 3 22 15 25 26 9 28 4 30 -20 11z"/>
<path d="M873 6685 c-7 -8 -13 -20 -13 -27 0 -9 3 -9 8 -2 4 5 18 18 32 27 22
15 22 17 5 17 -11 -1 -26 -7 -32 -15z"/>
<path d="M874 6645 c-10 -14 -27 -25 -37 -25 -10 0 -15 -5 -12 -10 3 -6 -2
-13 -12 -17 -25 -9 -42 -34 -43 -60 0 -17 4 -20 23 -16 12 3 34 17 49 31 35
33 46 24 14 -11 -41 -44 -54 -67 -49 -88 3 -10 8 -19 12 -19 9 0 51 63 45 69
-2 3 -11 -5 -20 -17 -8 -12 -20 -22 -26 -22 -6 0 -1 11 12 25 13 14 31 25 41
25 10 0 21 5 24 10 3 6 1 10 -5 10 -6 0 -8 5 -5 10 4 6 10 8 15 5 4 -3 14 3
21 12 8 9 9 14 2 10 -17 -10 -21 14 -7 41 14 27 8 62 -11 62 -7 0 -21 -11 -31
-25z m6 -49 c0 -2 -7 -6 -15 -10 -8 -3 -15 -1 -15 4 0 6 7 10 15 10 8 0 15 -2
15 -4z m-53 -53 c-9 -9 -20 -14 -24 -10 -3 4 2 14 13 21 25 19 33 10 11 -11z"/>
<path d="M888 6453 c-31 -37 -55 -70 -52 -72 2 -3 11 5 19 16 8 12 33 41 55
64 34 38 47 59 37 59 -1 0 -28 -30 -59 -67z"/>
<path d="M734 6453 c-4 -10 -19 -49 -34 -88 -49 -123 -101 -286 -98 -307 3
-19 10 -21 83 -22 44 0 113 1 153 2 l72 2 0 30 c0 22 -5 30 -18 30 -14 0 -18
8 -18 34 0 18 -6 52 -14 75 -12 37 -16 40 -39 34 -25 -6 -25 -6 -8 20 16 25
15 39 -10 107 -3 8 -8 24 -10 34 -2 10 -11 24 -20 31 -9 7 -13 17 -9 23 4 7 1
12 -9 12 -8 0 -18 -8 -21 -17z"/>
<path d="M896 6399 c-35 -42 -55 -74 -49 -80 5 -5 23 10 43 36 19 24 45 49 58
56 21 12 32 59 14 59 -4 0 -34 -32 -66 -71z"/>
<path d="M916 6339 c-31 -33 -56 -65 -56 -70 0 -13 49 24 67 51 16 23 41 26
49 6 5 -13 -34 -79 -60 -100 -18 -14 -30 -66 -15 -66 12 0 72 61 108 110 24
33 24 34 6 66 -14 27 -21 31 -32 23 -17 -15 -18 12 -1 29 8 8 8 12 1 12 -6 0
-36 -27 -67 -61z"/>
<path d="M999 6228 c-19 -24 -36 -45 -39 -48 -3 -3 -14 -16 -24 -30 -10 -14 9
4 43 39 53 55 71 81 57 81 -2 0 -19 -19 -37 -42z"/>
<path d="M999 6169 c-54 -55 -76 -89 -59 -89 5 0 10 7 10 15 0 8 3 15 8 15 4
0 29 25 55 55 61 69 52 72 -14 4z"/>
<path d="M1015 6114 c-57 -63 -70 -83 -60 -92 6 -6 134 126 135 141 1 21 -31
1 -75 -49z"/>
<path d="M1058 6073 c-18 -20 -47 -51 -65 -69 -27 -26 -30 -34 -20 -48 11 -15
16 -13 44 21 17 21 47 55 67 76 20 21 36 43 36 48 0 21 -32 7 -62 -28z"/>
<path d="M1046 5962 c-37 -43 -53 -68 -45 -71 7 -2 18 4 24 14 5 9 31 40 58
67 50 53 54 58 35 57 -7 0 -39 -30 -72 -67z"/>
<path d="M1120 5973 c0 -5 -25 -36 -56 -71 -40 -44 -54 -67 -49 -80 5 -14 11
-10 30 22 13 21 28 42 34 45 10 7 61 78 61 86 0 3 -4 5 -10 5 -5 0 -10 -3 -10
-7z"/>
<path d="M1135 5900 c-4 -12 -15 -20 -28 -20 -14 0 -18 -3 -10 -8 8 -5 0 -20
-26 -48 -37 -41 -43 -64 -15 -64 9 0 13 4 9 9 -3 5 3 16 12 23 40 29 92 98 87
113 -8 21 -21 19 -29 -5z"/>
<path d="M1110 5789 c-61 -74 -67 -107 -7 -44 27 28 53 45 68 46 22 0 23 1 4
9 -11 5 -14 9 -7 9 14 1 17 41 2 41 -5 0 -32 -27 -60 -61z"/>
<path d="M1146 5723 c-24 -21 -45 -42 -45 -47 -1 -6 -11 -21 -23 -34 -15 -16
-18 -23 -8 -20 8 2 25 20 38 38 12 18 35 41 50 50 32 20 59 50 44 50 -6 0 -31
-17 -56 -37z"/>
<path d="M1220 5645 c-13 -14 -21 -27 -18 -30 2 -3 17 9 33 25 16 17 24 30 19
30 -6 0 -21 -11 -34 -25z"/>
<path d="M8251 6183 c-98 -49 -211 -218 -211 -318 0 -70 41 -149 100 -193 40
-31 49 -33 89 -28 49 7 114 41 148 78 20 22 21 28 13 88 -5 36 -14 124 -20
195 -16 191 -35 219 -119 178z"/>
<path d="M2490 6160 c-66 -67 -130 -230 -130 -329 0 -109 105 -210 196 -187
42 11 115 86 145 151 53 110 33 274 -42 360 -25 28 -37 34 -82 37 -49 4 -54 2
-87 -32z"/>
<path d="M7096 6180 c-135 -53 -205 -150 -206 -287 -1 -134 36 -218 106 -242
75 -26 130 8 187 116 53 102 57 127 46 266 -6 67 -15 132 -20 145 -11 28 -45
28 -113 2z"/>
<path d="M4601 6158 c-64 -31 -118 -113 -135 -202 -7 -37 -6 -38 16 -32 13 3
55 11 93 17 39 6 103 21 143 33 l74 21 -6 33 c-8 52 -39 105 -76 130 -41 27
-54 27 -109 0z"/>
<path d="M8801 6158 c-64 -31 -118 -113 -135 -200 -8 -43 -11 -42 69 -23 33 8
71 14 85 15 14 0 58 10 98 22 l74 23 -6 33 c-8 52 -39 105 -76 130 -41 27 -54
27 -109 0z"/>
<path d="M1980 4724 c-8 -3 -22 -8 -30 -10 -13 -5 -13 -6 0 -15 13 -8 13 -10
0 -19 -13 -8 -22 -37 -20 -65 6 -71 10 -105 15 -132 3 -18 2 -33 -3 -33 -5 0
-9 -22 -9 -50 l0 -50 90 0 c49 0 107 5 129 12 40 12 82 53 72 70 -3 5 1 17 9
26 19 22 19 99 -1 107 -11 4 -12 8 -2 20 10 12 10 15 -1 15 -10 0 -10 3 -1 12
8 8 6 18 -9 40 -11 15 -25 28 -31 28 -5 0 -22 9 -37 20 -28 19 -140 35 -171
24z"/>
<path d="M1775 4659 c-4 -6 -5 -12 -2 -15 2 -3 7 2 10 11 7 17 1 20 -8 4z"/>
<path d="M2274 4644 c-18 -14 -18 -14 6 -3 31 14 36 19 24 19 -6 0 -19 -7 -30
-16z"/>
<path d="M1865 4624 c-16 -8 -37 -22 -45 -31 -12 -13 70 28 89 43 11 10 -17 2
-44 -12z"/>
<path d="M2283 4624 c-7 -3 -9 -12 -6 -20 3 -8 0 -21 -7 -29 -10 -12 -9 -15 8
-15 12 0 24 5 27 10 3 6 15 10 25 10 10 0 22 5 26 11 4 7 -5 10 -27 7 -28 -2
-33 0 -31 15 2 9 2 17 0 16 -2 0 -8 -3 -15 -5z"/>
<path d="M1865 4550 c-3 -6 1 -7 9 -4 18 7 21 14 7 14 -6 0 -13 -4 -16 -10z"/>
<path d="M2301 4509 c-18 -11 -31 -23 -28 -26 6 -5 67 34 67 43 0 6 -3 5 -39
-17z"/>
<path d="M2334 4494 c-17 -14 -17 -15 -1 -10 11 3 20 0 24 -10 5 -13 7 -13 14
-2 23 36 -2 51 -37 22z"/>
<path d="M1850 4485 c-14 -8 -20 -14 -14 -15 5 0 19 7 30 15 24 18 16 19 -16
0z"/>
<path d="M1837 4416 c-57 -33 -106 -71 -62 -48 45 23 138 82 129 82 -5 0 -35
-16 -67 -34z"/>
<path d="M1837 4379 c-62 -41 -72 -58 -11 -19 26 16 54 30 60 30 7 0 16 5 19
10 12 20 -23 9 -68 -21z"/>
<path d="M2235 4390 c-3 -5 1 -10 9 -10 8 0 18 5 21 10 3 6 -1 10 -9 10 -8 0
-18 -4 -21 -10z"/>
<path d="M1838 4344 c-41 -26 -52 -42 -16 -22 35 20 72 48 62 47 -5 0 -26 -11
-46 -25z"/>
<path d="M1832 4300 c-50 -36 -56 -49 -8 -17 18 12 42 27 52 34 11 6 14 12 8
12 -6 1 -30 -13 -52 -29z"/>
<path d="M1990 4320 c-36 -4 -59 -7 -51 -8 9 -1 10 -6 4 -14 -15 -20 -16 -90
-2 -99 10 -6 10 -11 1 -22 -7 -7 -9 -17 -5 -20 3 -4 1 -12 -4 -19 -12 -16 -7
-72 7 -76 12 -4 14 -32 1 -32 -4 0 -8 -21 -7 -47 1 -44 4 -49 36 -66 40 -20
160 -18 202 3 42 22 70 53 56 62 -10 6 -7 13 11 26 14 12 24 32 26 53 2 19 4
34 5 34 1 0 3 12 4 28 1 15 -2 27 -7 27 -5 0 -6 9 -2 19 7 24 -23 86 -63 129
-28 29 -35 32 -89 30 -32 -1 -87 -4 -123 -8z"/>
<path d="M1764 4248 c-5 -7 -9 -26 -9 -43 0 -26 3 -30 25 -28 l25 3 -25 -20
c-32 -25 -17 -26 18 -1 15 10 34 21 42 25 8 3 3 4 -12 1 -37 -7 -35 0 4 19 39
20 39 20 31 -1 -6 -16 -3 -16 18 2 13 11 26 22 29 24 3 2 -6 0 -20 -3 l-25 -7
25 20 c38 31 15 25 -51 -14 -64 -38 -98 -46 -62 -16 19 16 20 20 7 25 -8 3
-12 10 -9 16 9 14 -1 12 -11 -2z"/>
<path d="M2325 4210 c-39 -26 -25 -26 17 0 18 11 29 20 23 20 -5 0 -23 -9 -40
-20z"/>
<path d="M2347 4191 c-38 -18 -68 -41 -54 -41 4 0 31 13 60 30 57 33 54 39 -6
11z"/>
<path d="M2410 4190 c0 -6 -6 -8 -12 -4 -10 5 -10 4 -1 -6 15 -16 6 -40 -16
-40 -14 1 -14 2 2 14 16 12 16 14 1 20 -16 6 -33 -3 -66 -36 -26 -26 -22 -30
12 -13 17 9 30 11 30 5 0 -5 -5 -10 -10 -10 -6 0 -23 -12 -38 -26 l-27 -27 57
30 c31 17 61 27 67 24 5 -4 -19 -22 -55 -40 -36 -18 -63 -35 -61 -38 3 -2 32
10 65 27 32 16 63 30 66 30 18 0 -9 -21 -50 -39 -24 -11 -43 -24 -42 -30 2 -5
-15 -25 -37 -46 -24 -21 -31 -32 -17 -25 12 6 28 8 34 4 7 -4 8 -3 4 4 -4 7
16 23 54 42 33 17 60 34 61 38 6 62 5 91 -5 85 -6 -4 -4 2 4 12 11 14 12 19 2
22 -6 3 -10 9 -7 13 3 5 1 11 -5 15 -5 3 -10 1 -10 -5z m-13 -147 c-9 -9 -20
-13 -24 -9 -4 4 -1 11 7 16 25 16 35 11 17 -7z"/>
<path d="M1855 4167 c-11 -7 -22 -14 -25 -17 -3 -3 -21 -16 -40 -28 -19 -12
-31 -22 -26 -22 11 0 136 69 136 75 0 9 -25 4 -45 -8z"/>
<path d="M1813 4069 c-45 -29 -41 -33 7 -8 22 12 40 23 40 25 0 9 -16 3 -47
-17z"/>
<path d="M1865 4020 c-3 -6 1 -7 9 -4 18 7 21 14 7 14 -6 0 -13 -4 -16 -10z"/>
<path d="M2294 4015 c-10 -8 -14 -15 -8 -15 5 0 19 7 30 15 10 8 14 15 8 15
-5 0 -19 -7 -30 -15z"/>
<path d="M1760 3999 c0 -5 5 -7 10 -4 6 3 10 8 10 11 0 2 -4 4 -10 4 -5 0 -10
-5 -10 -11z"/>
<path d="M1810 3994 c-16 -8 -19 -14 -9 -14 8 0 24 7 35 15 24 18 7 18 -26 -1z"/>
<path d="M2380 4000 c-9 -6 -10 -10 -3 -10 6 0 15 5 18 10 8 12 4 12 -15 0z"/>
<path d="M1845 3979 c-22 -10 -44 -24 -50 -30 -9 -10 93 37 104 47 11 10 -18
1 -54 -17z"/>
<path d="M1830 3940 c-8 -5 -10 -10 -5 -10 6 0 17 5 25 10 8 5 11 10 5 10 -5
0 -17 -5 -25 -10z"/>
<path d="M1854 3926 c-11 -8 -38 -13 -62 -12 -25 1 -47 -3 -53 -11 -9 -10 4
-12 71 -8 46 3 85 7 88 10 3 3 -3 5 -14 5 -19 1 -19 1 0 15 26 20 -2 21 -30 1z"/>
<path d="M2300 3930 c-9 -6 -10 -10 -3 -10 6 0 15 5 18 10 8 12 4 12 -15 0z"/>
<path d="M1915 3910 c-3 -5 -1 -10 4 -10 6 0 11 5 11 10 0 6 -2 10 -4 10 -3 0
-8 -4 -11 -10z"/>
<path d="M3000 4214 c-72 -31 -110 -86 -110 -159 0 -114 71 -172 133 -107 46
48 67 109 61 177 -10 115 -14 119 -84 89z"/>
<path d="M4561 4205 c-33 -35 -63 -106 -68 -160 -5 -47 -3 -55 23 -83 57 -62
121 -47 164 39 34 66 21 171 -25 209 -26 21 -73 19 -94 -5z"/>
<path d="M1156 4190 c-30 -26 -66 -95 -54 -104 5 -4 179 32 185 38 10 9 -19
66 -41 81 -31 22 -51 18 -90 -15z"/>
<path d="M2650 4213 c-28 -10 -70 -56 -81 -90 -6 -19 -9 -36 -7 -37 5 -4 179
32 185 38 10 9 -19 66 -41 81 -21 16 -31 17 -56 8z"/>
<path d="M3153 3096 c-38 -14 -88 -55 -78 -64 3 -4 10 0 15 8 5 8 15 15 22 15
7 1 12 7 10 14 -1 7 3 11 10 8 13 -4 68 19 68 28 0 7 -9 5 -47 -9z"/>
<path d="M3164 3025 c-18 -14 -18 -14 4 -8 12 3 22 9 22 14 0 12 -3 11 -26 -6z"/>
<path d="M3095 3010 c-3 -6 1 -7 9 -4 18 7 21 14 7 14 -6 0 -13 -4 -16 -10z"/>
<path d="M3135 2988 c-54 -30 -125 -81 -125 -89 0 -9 48 21 77 48 7 6 29 17
48 24 19 7 35 17 35 21 0 11 -11 10 -35 -4z"/>
<path d="M3155 2950 c-16 -7 -17 -9 -3 -9 9 -1 20 4 23 9 7 11 7 11 -20 0z"/>
<path d="M3105 2898 c-22 -11 -49 -28 -60 -38 -11 -10 -27 -19 -35 -22 -9 -3
-10 -7 -3 -11 6 -4 17 -1 25 6 7 7 40 29 73 50 64 40 64 49 0 15z"/>
<path d="M3049 2893 c-13 -17 -13 -17 6 -3 11 8 22 16 24 17 2 2 0 3 -6 3 -6
0 -17 -8 -24 -17z"/>
<path d="M3120 2867 c-45 -24 -110 -69 -110 -78 0 -7 77 36 130 74 29 20 16
23 -20 4z"/>
<path d="M3110 2824 c-57 -32 -100 -73 -99 -93 0 -11 3 -10 8 4 5 11 34 36 65
55 32 19 65 40 74 47 31 22 -2 13 -48 -13z"/>
<path d="M3128 2783 c7 -3 16 -2 19 1 4 3 -2 6 -13 5 -11 0 -14 -3 -6 -6z"/>
<path d="M3080 2728 c-36 -22 -59 -43 -52 -45 6 -3 10 -8 7 -12 -2 -5 2 -17
10 -27 13 -17 14 -18 15 -1 0 9 7 17 16 17 8 0 12 5 9 10 -3 6 5 10 19 10 13
0 31 7 39 15 8 8 17 11 21 8 3 -4 6 4 6 16 0 18 -4 22 -17 17 -15 -6 -15 -4 2
14 31 34 -3 24 -75 -22z m5 -28 c-3 -5 -14 -10 -23 -9 -14 0 -13 2 3 9 27 11
27 11 20 0z"/>
<path d="M3130 2640 c-8 -5 -10 -10 -5 -10 6 0 17 5 25 10 8 5 11 10 5 10 -5
0 -17 -5 -25 -10z"/>
<path d="M3142 2615 c-15 -18 -1 -20 16 -3 9 9 12 9 12 0 0 -6 -8 -15 -17 -21
-10 -5 -15 -12 -12 -16 3 -3 17 4 30 15 20 17 22 21 9 30 -19 13 -22 12 -38
-5z"/>
<path d="M3190 2574 c0 -5 -10 -14 -22 -19 -12 -6 -23 -16 -26 -22 -5 -18 24
-16 42 3 19 18 21 11 5 -17 -8 -15 -7 -24 2 -35 11 -13 14 -12 25 8 7 13 8 25
3 28 -4 3 -10 16 -12 28 -3 22 -17 43 -17 26z"/>
<path d="M3220 2471 c0 -5 9 -11 21 -14 16 -4 18 -3 8 9 -13 16 -29 19 -29 5z"/>
<path d="M4613 1782 c-34 -3 -57 -40 -52 -84 2 -12 0 -29 -4 -36 -5 -7 -2 -14
7 -18 13 -5 14 -9 3 -25 -15 -21 -11 -79 5 -79 6 0 5 -6 -2 -15 -10 -12 -10
-18 -1 -29 9 -10 9 -16 1 -21 -13 -8 -10 -77 4 -87 6 -4 5 -12 -2 -21 -18 -22
-4 -127 16 -127 12 0 11 -5 -6 -20 -24 -23 -31 -85 -9 -93 10 -3 10 -9 0 -26
-7 -11 -13 -39 -13 -61 0 -36 3 -41 36 -55 38 -16 184 -21 198 -7 4 4 11 7 16
7 18 0 70 47 86 76 23 46 45 154 49 244 2 44 4 85 6 90 5 20 -13 105 -23 105
-5 0 -9 10 -8 23 1 12 1 24 0 27 0 3 -3 20 -4 38 -4 40 -25 92 -37 92 -5 0 -9
6 -9 13 0 15 -41 55 -82 80 -26 16 -80 19 -175 9z"/>
<path d="M4525 1720 c3 -5 8 -10 11 -10 2 0 4 5 4 10 0 6 -5 10 -11 10 -5 0
-7 -4 -4 -10z"/>
<path d="M4933 1708 c-13 -6 -23 -15 -23 -20 0 -10 36 7 45 22 7 12 7 12 -22
-2z"/>
<path d="M4441 1674 c-19 -8 -32 -17 -29 -19 3 -3 25 4 49 15 24 11 37 19 29
19 -8 0 -30 -6 -49 -15z"/>
<path d="M4458 1648 c-27 -11 -48 -24 -48 -29 0 -4 23 2 51 15 83 39 81 50 -3
14z"/>
<path d="M4973 1623 c-18 -9 -33 -22 -33 -30 0 -8 15 -5 47 12 26 14 49 28 52
30 11 11 -37 2 -66 -12z"/>
<path d="M4500 1623 c-45 -15 -100 -44 -100 -53 0 -5 14 -4 33 4 92 40 107 47
107 51 0 6 -20 5 -40 -2z"/>
<path d="M5035 1600 c-3 -5 -14 -10 -23 -10 -17 0 -75 -39 -59 -40 8 0 72 32
97 49 9 7 10 11 3 11 -6 0 -15 -4 -18 -10z"/>
<path d="M5020 1564 c-25 -13 -41 -24 -36 -24 5 0 1 -9 -9 -20 -28 -31 -12
-34 43 -6 57 29 62 34 53 58 -5 14 -11 14 -51 -8z"/>
<path d="M4460 1551 c0 -14 5 -18 20 -14 11 3 20 10 20 15 0 5 -4 6 -10 3 -5
-3 -10 -1 -10 4 0 6 -4 11 -10 11 -5 0 -10 -9 -10 -19z"/>
<path d="M4417 1530 c5 -20 15 -25 26 -13 8 7 -11 33 -23 33 -5 0 -6 -9 -3
-20z"/>
<path d="M4446 1493 c-26 -13 -46 -27 -42 -30 3 -3 29 6 57 21 28 14 56 23 61
19 7 -3 8 -1 4 5 -10 16 -23 14 -80 -15z"/>
<path d="M4488 1475 c-43 -16 -88 -44 -88 -55 0 -5 12 -3 28 5 15 7 46 21 70
31 23 10 42 21 42 26 0 10 -7 9 -52 -7z"/>
<path d="M5020 1443 c-55 -32 -55 -32 -48 -39 7 -6 104 41 113 56 11 18 -19
10 -65 -17z"/>
<path d="M5055 1419 c-16 -12 -22 -18 -12 -15 10 3 30 6 43 6 15 0 24 6 24 15
0 21 -20 19 -55 -6z"/>
<path d="M4455 1379 c-22 -10 -44 -24 -49 -29 -16 -16 6 -11 28 5 11 8 27 15
35 15 9 0 25 7 35 15 29 22 -1 18 -49 -6z"/>
<path d="M5095 1390 c-3 -5 -1 -10 4 -10 6 0 11 5 11 10 0 6 -2 10 -4 10 -3 0
-8 -4 -11 -10z"/>
<path d="M5007 1369 c-22 -11 -37 -23 -34 -25 6 -7 63 22 72 36 8 13 7 13 -38
-11z"/>
<path d="M5017 1332 c-26 -15 -43 -28 -38 -30 5 -2 34 11 63 27 29 17 46 30
38 30 -8 0 -36 -13 -63 -27z"/>
<path d="M4456 1341 c-4 -5 3 -7 14 -4 23 6 26 13 6 13 -8 0 -17 -4 -20 -9z"/>
<path d="M4520 1340 c0 -5 -4 -10 -9 -10 -5 0 -30 -12 -57 -27 -57 -32 -43
-43 16 -13 23 12 47 19 54 17 7 -3 13 5 14 19 1 13 -3 24 -8 24 -6 0 -10 -4
-10 -10z"/>
<path d="M5031 1294 c-29 -19 -51 -38 -48 -41 6 -5 74 32 112 61 40 31 -9 15
-64 -20z"/>
<path d="M5047 1260 c-19 -16 -39 -30 -43 -30 -10 -1 -48 -49 -42 -55 1 -2 29
17 61 41 32 24 63 44 68 44 5 0 9 7 9 15 0 23 -16 18 -53 -15z"/>
<path d="M4520 1231 c0 -5 -8 -12 -17 -14 -14 -4 -12 -5 5 -6 13 -1 22 5 22
14 0 8 -2 15 -5 15 -3 0 -5 -4 -5 -9z"/>
<path d="M4468 1193 c6 -2 18 -2 25 0 6 3 1 5 -13 5 -14 0 -19 -2 -12 -5z"/>
<path d="M4510 1186 c0 -8 -8 -17 -18 -20 -23 -8 -82 -62 -82 -75 0 -6 7 -11
15 -11 8 0 15 -6 15 -12 0 -9 3 -8 9 2 6 8 8 17 5 21 -2 4 9 5 26 3 24 -4 30
-2 30 13 0 15 -2 16 -10 3 -5 -8 -10 -10 -10 -4 0 18 12 24 26 13 8 -7 14 -7
19 1 3 5 1 10 -5 10 -7 0 -8 6 0 19 15 28 12 51 -5 51 -8 0 -15 -6 -15 -14z"/>
<path d="M4410 1170 c0 -5 4 -10 9 -10 6 0 13 5 16 10 3 6 -1 10 -9 10 -9 0
-16 -4 -16 -10z"/>
<path d="M5000 1139 c-22 -18 -22 -19 -3 -10 12 6 25 16 28 21 9 15 3 12 -25
-11z"/>
<path d="M5000 1110 c-13 -8 -13 -10 2 -10 9 0 20 5 23 10 8 13 -5 13 -25 0z"/>
<path d="M4515 1060 c-3 -5 1 -10 9 -10 9 0 16 5 16 10 0 6 -4 10 -9 10 -6 0
-13 -4 -16 -10z"/>
<path d="M4443 1010 c-40 -24 -41 -30 -5 -30 19 0 30 7 39 25 14 30 8 31 -34
5z"/>
<path d="M4500 995 l-25 -14 37 -1 c29 0 36 3 32 15 -7 18 -12 18 -44 0z"/>
<path d="M5306 1250 c-30 -26 -66 -95 -54 -104 5 -4 179 32 185 38 10 9 -19
66 -41 81 -31 22 -51 18 -90 -15z"/>
<path d="M6158 1248 c-24 -24 -55 -88 -69 -141 -15 -61 1 -111 45 -138 41 -25
59 -24 96 7 51 43 61 72 53 159 -5 60 -11 83 -30 105 -26 32 -68 35 -95 8z"/>
</g>
</svg>
